<?xml version="1.0" encoding="iso-8859-1"?>
<!-- Generator: Adobe Illustrator 19.0.0, SVG Export Plug-In . SVG Version: 6.00 Build 0)  -->
<svg version="1.1" id="Layer_1" xmlns="http://www.w3.org/2000/svg" xmlns:xlink="http://www.w3.org/1999/xlink" x="0px" y="0px"
	 viewBox="0 0 800 353.708" style="enable-background:new 0 0 800 353.708;" xml:space="preserve">
<g id="XMLID_2_">
	<path id="XMLID_1_" style="fill:none;stroke:#000000;stroke-miterlimit:10;" d="M557.857,353.708
		c-9.862,0-24.047-8.245-29.761-17.298c-9.321-14.99-19.723-30.669-31.695-47.769c-18.001-25.845-56.307-45.378-89.064-45.378
		h-14.65c-32.788,0-71.092,19.533-89.13,45.439c-11.931,17.04-22.332,32.719-31.757,47.87c-5.613,8.894-19.795,17.137-29.656,17.137
		c-0.282,0-0.564-0.006-0.842-0.024c-59.115-3.287-118.962-8.48-177.981-15.436c-10.023-1.246-28.121-13.802-33.459-25.44
		C-9.953,222.804-9.954,135.292,29.859,45.286c5.336-11.64,23.435-24.196,33.634-25.461C175.026,6.678,288.302,0,400,0
		s224.974,6.678,336.68,19.846c10.023,1.244,28.121,13.8,33.46,25.44c39.813,90.004,39.813,177.519-0.002,267.523
		c-5.339,11.64-23.435,24.196-33.633,25.459c-58.848,6.937-118.697,12.129-177.706,15.412
		C558.42,353.701,558.14,353.708,557.857,353.708z"/>
</g>
</svg>
