<?xml version="1.0" encoding="UTF-8" standalone="no"?>
<!-- Created with Inkscape (http://www.inkscape.org/) -->

<svg
   xmlns:dc="http://purl.org/dc/elements/1.1/"
   xmlns:cc="http://creativecommons.org/ns#"
   xmlns:rdf="http://www.w3.org/1999/02/22-rdf-syntax-ns#"
   xmlns:svg="http://www.w3.org/2000/svg"
   xmlns="http://www.w3.org/2000/svg"
   xmlns:sodipodi="http://sodipodi.sourceforge.net/DTD/sodipodi-0.dtd"
   xmlns:inkscape="http://www.inkscape.org/namespaces/inkscape"
   version="1.1"
   id="svg2"
   xml:space="preserve"
   width="1280"
   height="640"
   viewBox="0 0 1279.9999 639.99997"
   sodipodi:docname="banner1_5.svg"
   inkscape:version="0.92.1 r15371"><metadata
     id="metadata8"><rdf:RDF><cc:Work
         rdf:about=""><dc:format>image/svg+xml</dc:format><dc:type
           rdf:resource="http://purl.org/dc/dcmitype/StillImage" /><dc:title></dc:title></cc:Work></rdf:RDF></metadata><defs
     id="defs6"><clipPath
       clipPathUnits="userSpaceOnUse"
       id="clipPath20"><path
         d="M 0,800 H 800 V 0 H 0 Z"
         id="path18"
         inkscape:connector-curvature="0" /></clipPath><clipPath
       clipPathUnits="userSpaceOnUse"
       id="clipPath28"><path
         d="M 218.973,614.505 H 583.586 V 486.389 H 218.973 Z"
         id="path26"
         inkscape:connector-curvature="0" /></clipPath><clipPath
       clipPathUnits="userSpaceOnUse"
       id="clipPath32"><path
         d="M 452.583,486.389 H 349.976 L 218.973,614.505 h 364.613 z"
         id="path30"
         inkscape:connector-curvature="0" /></clipPath><linearGradient
       x1="0"
       y1="0"
       x2="1"
       y2="0"
       gradientUnits="userSpaceOnUse"
       gradientTransform="matrix(-5.7e-6,131.30122,131.30122,5.7e-6,401.2793,487.39893)"
       spreadMethod="pad"
       id="linearGradient42"><stop
         style="stop-opacity:0;stop-color:#ffffff"
         offset="0"
         id="stop38" /><stop
         style="stop-opacity:1;stop-color:#ffffff"
         offset="1"
         id="stop40" /></linearGradient><mask
       maskUnits="userSpaceOnUse"
       x="0"
       y="0"
       width="1"
       height="1"
       id="mask44"><g
         id="g54"><g
           id="g52"><g
             id="g50"><g
               id="g48"><path
                 d="M -32768,32767 H 32767 V -32768 H -32768 Z"
                 style="fill:url(#linearGradient42);stroke:none"
                 id="path46"
                 inkscape:connector-curvature="0" /></g></g></g></g></mask><linearGradient
       x1="0"
       y1="0"
       x2="1"
       y2="0"
       gradientUnits="userSpaceOnUse"
       gradientTransform="matrix(-5.7e-6,131.30122,131.30122,5.7e-6,401.2793,487.39893)"
       spreadMethod="pad"
       id="linearGradient60"><stop
         style="stop-opacity:1;stop-color:#50ebeb"
         offset="0"
         id="stop56" /><stop
         style="stop-opacity:1;stop-color:#1f9ba8"
         offset="1"
         id="stop58" /></linearGradient><clipPath
       clipPathUnits="userSpaceOnUse"
       id="clipPath86"><path
         d="M 425.159,614.505 H 548.456 V 486.389 H 425.159 Z"
         id="path84"
         inkscape:connector-curvature="0" /></clipPath><clipPath
       clipPathUnits="userSpaceOnUse"
       id="clipPath90"><path
         d="m 434.486,486.389 h -9.327 l 61.195,128.116 h 62.102 z"
         id="path88"
         inkscape:connector-curvature="0" /></clipPath><linearGradient
       x1="0"
       y1="0"
       x2="1"
       y2="0"
       gradientUnits="userSpaceOnUse"
       gradientTransform="matrix(-5.7e-6,131.30122,131.30122,5.7e-6,486.80762,487.39893)"
       spreadMethod="pad"
       id="linearGradient100"><stop
         style="stop-opacity:0;stop-color:#ffffff"
         offset="0"
         id="stop96" /><stop
         style="stop-opacity:1;stop-color:#ffffff"
         offset="1"
         id="stop98" /></linearGradient><mask
       maskUnits="userSpaceOnUse"
       x="0"
       y="0"
       width="1"
       height="1"
       id="mask102"><g
         id="g112"><g
           id="g110"><g
             id="g108"><g
               id="g106"><path
                 d="M -32768,32767 H 32767 V -32768 H -32768 Z"
                 style="fill:url(#linearGradient100);stroke:none"
                 id="path104"
                 inkscape:connector-curvature="0" /></g></g></g></g></mask><linearGradient
       x1="0"
       y1="0"
       x2="1"
       y2="0"
       gradientUnits="userSpaceOnUse"
       gradientTransform="matrix(-5.7e-6,131.30122,131.30122,5.7e-6,486.80762,487.39893)"
       spreadMethod="pad"
       id="linearGradient118"><stop
         style="stop-opacity:1;stop-color:#ffffff"
         offset="0"
         id="stop114" /><stop
         style="stop-opacity:1;stop-color:#ffffff"
         offset="1"
         id="stop116" /></linearGradient><clipPath
       clipPathUnits="userSpaceOnUse"
       id="clipPath144"><path
         d="M 257.501,614.505 H 380.797 V 486.389 H 257.501 Z"
         id="path142"
         inkscape:connector-curvature="0" /></clipPath><clipPath
       clipPathUnits="userSpaceOnUse"
       id="clipPath148"><path
         d="m 371.471,486.389 h 9.326 l -61.195,128.116 h -62.101 z"
         id="path146"
         inkscape:connector-curvature="0" /></clipPath><linearGradient
       x1="0"
       y1="0"
       x2="1"
       y2="0"
       gradientUnits="userSpaceOnUse"
       gradientTransform="matrix(5.7e-6,131.30122,-131.30122,5.7e-6,319.15039,487.39941)"
       spreadMethod="pad"
       id="linearGradient158"><stop
         style="stop-opacity:0;stop-color:#ffffff"
         offset="0"
         id="stop154" /><stop
         style="stop-opacity:1;stop-color:#ffffff"
         offset="1"
         id="stop156" /></linearGradient><mask
       maskUnits="userSpaceOnUse"
       x="0"
       y="0"
       width="1"
       height="1"
       id="mask160"><g
         id="g170"><g
           id="g168"><g
             id="g166"><g
               id="g164"><path
                 d="M -32768,32767 H 32767 V -32768 H -32768 Z"
                 style="fill:url(#linearGradient158);stroke:none"
                 id="path162"
                 inkscape:connector-curvature="0" /></g></g></g></g></mask><linearGradient
       x1="0"
       y1="0"
       x2="1"
       y2="0"
       gradientUnits="userSpaceOnUse"
       gradientTransform="matrix(5.7e-6,131.30122,-131.30122,5.7e-6,319.15039,487.39941)"
       spreadMethod="pad"
       id="linearGradient176"><stop
         style="stop-opacity:1;stop-color:#ffffff"
         offset="0"
         id="stop172" /><stop
         style="stop-opacity:1;stop-color:#ffffff"
         offset="1"
         id="stop174" /></linearGradient><clipPath
       clipPathUnits="userSpaceOnUse"
       id="clipPath270"><path
         d="M 0,800 H 800 V 0 H 0 Z"
         id="path268"
         inkscape:connector-curvature="0" /></clipPath><clipPath
       clipPathUnits="userSpaceOnUse"
       id="clipPath278"><path
         d="M 197.414,753.646 H 602.586 V 614.503 H 197.414 Z"
         id="path276"
         inkscape:connector-curvature="0" /></clipPath><clipPath
       clipPathUnits="userSpaceOnUse"
       id="clipPath282"><path
         d="m 599.683,739.097 -11.644,11.644 c -1.598,1.598 -4.752,2.905 -7.011,2.905 l -362.055,-10e-4 c -2.26,0 -5.413,-1.306 -7.011,-2.904 l -11.644,-11.644 c -1.598,-1.599 -2.904,-4.753 -2.904,-7.01 v -96.025 c 0,-2.26 1.306,-5.414 2.904,-7.011 l 11.644,-11.645 c 1.598,-1.597 4.751,-2.903 7.011,-2.903 h 362.053 c 2.261,0 5.415,1.306 7.011,2.903 l 11.646,11.645 c 1.596,1.597 2.903,4.751 2.903,7.011 v 96.025 c 0,2.257 -1.307,5.411 -2.903,7.01"
         id="path280"
         inkscape:connector-curvature="0" /></clipPath><linearGradient
       x1="0"
       y1="0"
       x2="1"
       y2="0"
       gradientUnits="userSpaceOnUse"
       gradientTransform="matrix(254.70621,254.70621,254.70621,-254.70621,272.64746,556.7207)"
       spreadMethod="pad"
       id="linearGradient292"><stop
         style="stop-opacity:0.70000763;stop-color:#ffffff"
         offset="0"
         id="stop288" /><stop
         style="stop-opacity:1;stop-color:#ffffff"
         offset="1"
         id="stop290" /></linearGradient><mask
       maskUnits="userSpaceOnUse"
       x="0"
       y="0"
       width="1"
       height="1"
       id="mask294"><g
         id="g304"><g
           id="g302"><g
             id="g300"><g
               id="g298"><path
                 d="M -32768,32767 H 32767 V -32768 H -32768 Z"
                 style="fill:url(#linearGradient292);stroke:none"
                 id="path296"
                 inkscape:connector-curvature="0" /></g></g></g></g></mask><linearGradient
       x1="0"
       y1="0"
       x2="1"
       y2="0"
       gradientUnits="userSpaceOnUse"
       gradientTransform="matrix(254.70621,254.70621,254.70621,-254.70621,272.64746,556.7207)"
       spreadMethod="pad"
       id="linearGradient310"><stop
         style="stop-opacity:1;stop-color:#50ebeb"
         offset="0"
         id="stop306" /><stop
         style="stop-opacity:1;stop-color:#1f9ba8"
         offset="1"
         id="stop308" /></linearGradient><clipPath
       clipPathUnits="userSpaceOnUse"
       id="clipPath336"><path
         d="M 197.414,753.646 H 602.586 V 614.503 H 197.414 Z"
         id="path334"
         inkscape:connector-curvature="0" /></clipPath><clipPath
       clipPathUnits="userSpaceOnUse"
       id="clipPath392"><path
         d="M 264.336,753.645 H 395.168 V 614.503 H 264.336 Z"
         id="path390"
         inkscape:connector-curvature="0" /></clipPath><clipPath
       clipPathUnits="userSpaceOnUse"
       id="clipPath408"><path
         d="M 331.863,753.645 H 554.648 V 614.503 H 331.863 Z"
         id="path406"
         inkscape:connector-curvature="0" /></clipPath><clipPath
       clipPathUnits="userSpaceOnUse"
       id="clipPath424"><path
         d="m 497.768,646.597 h 68.929 v -4.644 h -68.929 z"
         id="path422"
         inkscape:connector-curvature="0" /></clipPath><clipPath
       clipPathUnits="userSpaceOnUse"
       id="clipPath446"><path
         d="M 0,800 H 800 V 0 H 0 Z"
         id="path444"
         inkscape:connector-curvature="0" /></clipPath><clipPath
       clipPathUnits="userSpaceOnUse"
       id="clipPath784"><path
         d="m 452.343,581.812 h 68.929 v -4.644 h -68.929 z"
         id="path782"
         inkscape:connector-curvature="0" /></clipPath><clipPath
       clipPathUnits="userSpaceOnUse"
       id="clipPath798"><path
         d="m 267.831,594.993 h 44.367 v -4.643 h -44.367 z"
         id="path796"
         inkscape:connector-curvature="0" /></clipPath><clipPath
       clipPathUnits="userSpaceOnUse"
       id="clipPath812"><path
         d="m 393.667,547.916 h 34.465 v -4.644 h -34.465 z"
         id="path810"
         inkscape:connector-curvature="0" /></clipPath><clipPath
       clipPathUnits="userSpaceOnUse"
       id="clipPath826"><path
         d="m 377.593,590.35 h 16.074 v -4.644 h -16.074 z"
         id="path824"
         inkscape:connector-curvature="0" /></clipPath><clipPath
       clipPathUnits="userSpaceOnUse"
       id="clipPath840"><path
         d="m 335.182,562.601 h 9.863 v -4.644 h -9.863 z"
         id="path838"
         inkscape:connector-curvature="0" /></clipPath><clipPath
       clipPathUnits="userSpaceOnUse"
       id="clipPath854"><path
         d="M 0,800 H 800 V 0 H 0 Z"
         id="path852"
         inkscape:connector-curvature="0" /></clipPath></defs><sodipodi:namedview
     pagecolor="#ffffff"
     bordercolor="#666666"
     borderopacity="1"
     objecttolerance="10"
     gridtolerance="10"
     guidetolerance="10"
     inkscape:pageopacity="0"
     inkscape:pageshadow="2"
     inkscape:window-width="1920"
     inkscape:window-height="1017"
     id="namedview4"
     showgrid="false"
     fit-margin-top="0"
     fit-margin-left="0"
     fit-margin-right="0"
     fit-margin-bottom="0"
     inkscape:zoom="0.73"
     inkscape:cx="515.13305"
     inkscape:cy="108.28415"
     inkscape:window-x="-8"
     inkscape:window-y="-8"
     inkscape:window-maximized="1"
     inkscape:current-layer="g5581" /><g
     id="g10"
     inkscape:groupmode="layer"
     inkscape:label="87386-OHYPWR-929"
     transform="matrix(1.3333333,0,0,-1.3333333,-9.9811422,1174.6382)"><g
       id="g5513"
       transform="matrix(2.158183,0,0,2.158183,-374.8103,-252.47939)"><g
         id="g5581"
         transform="translate(0,-9.9411181)"><g
           id="g204"
           transform="translate(259.6357,377.53466)"
           style="fill:#323232;fill-opacity:1"><path
             d="m 0,0 c 0,-6.627 -5.373,-12 -12,-12 h -42.333 c -6.627,0 -12,5.373 -12,12 v 71 c 0,6.627 5.373,12 12,12 H -12 C -5.373,83 0,77.627 0,71 Z"
             style="fill:#323232;fill-opacity:1;fill-rule:nonzero;stroke:none"
             id="path206"
             inkscape:connector-curvature="0" /></g><g
           id="g212"
           transform="translate(540.3643,377.53466)"
           style="fill:#323232;fill-opacity:1"><path
             d="m 0,0 c 0,-6.627 5.373,-12 12,-12 h 42.333 c 6.628,0 12,5.373 12,12 v 71 c 0,6.627 -5.372,12 -12,12 H 12 C 5.373,83 0,77.627 0,71 Z"
             style="fill:#323232;fill-opacity:1;fill-rule:nonzero;stroke:none"
             id="path214"
             inkscape:connector-curvature="0" /></g></g></g><g
       id="g848"><g
         id="g850"
         clip-path="url(#clipPath854)"><g
           id="g856"
           transform="translate(283.3926,30.5215)"><path
             d="m 0,0 c 0,-0.703 0.109,-1.301 0.326,-1.795 0.219,-0.494 0.52,-0.865 0.901,-1.115 0.38,-0.25 0.794,-0.377 1.244,-0.377 0.455,0 0.871,0.119 1.25,0.357 0.375,0.237 0.675,0.602 0.9,1.092 0.227,0.49 0.338,1.106 0.338,1.838 0,0.691 -0.111,1.285 -0.338,1.783 C 4.396,2.279 4.094,2.658 3.711,2.922 3.326,3.184 2.908,3.314 2.451,3.314 1.977,3.314 1.553,3.18 1.18,2.912 0.805,2.643 0.514,2.258 0.309,1.754 0.102,1.25 0,0.666 0,0 m 5.102,-3.809 v 0.258 C 4.754,-3.949 4.41,-4.275 4.07,-4.523 3.732,-4.775 3.365,-4.965 2.969,-5.094 2.574,-5.227 2.143,-5.289 1.674,-5.289 c -0.621,0 -1.199,0.131 -1.727,0.393 -0.529,0.263 -0.986,0.638 -1.373,1.126 -0.386,0.487 -0.679,1.059 -0.879,1.719 -0.199,0.658 -0.299,1.371 -0.299,2.137 0,1.621 0.397,2.885 1.188,3.791 0.791,0.904 1.834,1.357 3.127,1.357 0.746,0 1.377,-0.129 1.891,-0.384 0.511,-0.256 1.011,-0.653 1.5,-1.182 v 3.826 c 0,0.533 0.105,0.934 0.318,1.207 0.211,0.272 0.514,0.408 0.906,0.408 0.395,0 0.695,-0.125 0.908,-0.375 C 7.445,8.482 7.553,8.115 7.553,7.627 V -3.809 c 0,-0.494 -0.114,-0.863 -0.342,-1.111 -0.229,-0.246 -0.524,-0.369 -0.885,-0.369 -0.353,0 -0.646,0.127 -0.879,0.383 -0.23,0.258 -0.345,0.623 -0.345,1.097"
             style="fill:#ffffff;fill-opacity:1;fill-rule:nonzero;stroke:none"
             id="path858"
             inkscape:connector-curvature="0" /></g><g
           id="g860"
           transform="translate(294.8574,31.3379)"><path
             d="M 0,0 H 4.701 C 4.639,0.887 4.398,1.551 3.984,1.99 3.568,2.432 3.023,2.65 2.346,2.65 1.699,2.65 1.168,2.428 0.756,1.982 0.34,1.535 0.09,0.875 0,0 M 5.07,-1.473 H 0 c 0.006,-0.588 0.123,-1.107 0.355,-1.556 0.231,-0.45 0.54,-0.789 0.922,-1.016 0.383,-0.228 0.805,-0.342 1.268,-0.342 0.31,0 0.594,0.035 0.85,0.108 0.257,0.074 0.505,0.187 0.746,0.343 0.24,0.155 0.463,0.321 0.664,0.498 0.203,0.178 0.465,0.42 0.789,0.723 0.133,0.113 0.322,0.172 0.57,0.172 0.266,0 0.481,-0.074 0.645,-0.221 0.164,-0.146 0.248,-0.349 0.248,-0.617 0,-0.234 -0.092,-0.506 -0.276,-0.82 C 6.596,-4.516 6.32,-4.816 5.949,-5.104 5.578,-5.393 5.115,-5.631 4.553,-5.82 3.994,-6.012 3.35,-6.105 2.621,-6.105 c -1.666,0 -2.961,0.474 -3.885,1.423 -0.924,0.95 -1.386,2.239 -1.386,3.866 0,0.767 0.113,1.478 0.341,2.132 0.229,0.657 0.561,1.217 0.997,1.686 0.437,0.469 0.976,0.828 1.615,1.078 0.64,0.25 1.349,0.375 2.129,0.375 1.011,0 1.88,-0.213 2.605,-0.641 C 5.764,3.387 6.307,2.834 6.666,2.158 7.027,1.48 7.209,0.789 7.209,0.088 7.209,-0.566 7.021,-0.988 6.648,-1.182 6.275,-1.375 5.748,-1.473 5.07,-1.473"
             style="fill:#ffffff;fill-opacity:1;fill-rule:nonzero;stroke:none"
             id="path862"
             inkscape:connector-curvature="0" /></g><g
           id="g864"
           transform="translate(311.7422,28.623)"><path
             d="m 0,0 c 0,-0.715 -0.172,-1.328 -0.521,-1.838 -0.348,-0.51 -0.864,-0.896 -1.543,-1.16 -0.682,-0.262 -1.51,-0.393 -2.485,-0.393 -0.93,0 -1.728,0.143 -2.392,0.428 -0.666,0.283 -1.157,0.641 -1.473,1.067 -0.316,0.429 -0.475,0.857 -0.475,1.289 0,0.285 0.1,0.527 0.305,0.73 0.201,0.201 0.459,0.303 0.77,0.303 0.271,0 0.478,-0.067 0.625,-0.199 0.146,-0.133 0.285,-0.321 0.418,-0.559 0.265,-0.465 0.584,-0.807 0.955,-1.037 0.371,-0.227 0.875,-0.342 1.515,-0.342 0.52,0 0.946,0.117 1.278,0.348 0.332,0.232 0.498,0.496 0.498,0.793 0,0.457 -0.172,0.787 -0.518,0.996 -0.346,0.209 -0.914,0.41 -1.705,0.599 -0.893,0.221 -1.619,0.455 -2.18,0.7 -0.56,0.242 -1.008,0.564 -1.343,0.963 -0.336,0.398 -0.504,0.89 -0.504,1.472 0,0.518 0.154,1.01 0.464,1.473 0.311,0.461 0.77,0.83 1.375,1.105 0.604,0.276 1.332,0.414 2.188,0.414 0.672,0 1.275,-0.07 1.809,-0.211 0.535,-0.136 0.982,-0.326 1.339,-0.56 0.358,-0.233 0.631,-0.492 0.817,-0.777 0.187,-0.286 0.279,-0.563 0.279,-0.836 0,-0.297 -0.1,-0.541 -0.297,-0.733 C -1,3.848 -1.283,3.75 -1.652,3.75 -1.918,3.75 -2.145,3.826 -2.33,3.98 -2.518,4.131 -2.73,4.359 -2.973,4.662 -3.168,4.916 -3.398,5.119 -3.664,5.271 -3.932,5.424 -4.291,5.498 -4.748,5.498 -5.217,5.498 -5.605,5.4 -5.916,5.199 -6.227,5 -6.381,4.752 -6.381,4.455 c 0,-0.273 0.113,-0.496 0.34,-0.67 0.229,-0.176 0.537,-0.32 0.924,-0.433 C -4.732,3.238 -4.201,3.1 -3.521,2.936 -2.719,2.738 -2.063,2.504 -1.553,2.232 -1.043,1.961 -0.656,1.639 -0.393,1.268 -0.129,0.896 0,0.475 0,0"
             style="fill:#ffffff;fill-opacity:1;fill-rule:nonzero;stroke:none"
             id="path866"
             inkscape:connector-curvature="0" /></g><g
           id="g868"
           transform="translate(315.6738,34.3027)"><path
             d="m 0,0 v -7.494 c 0,-0.52 -0.123,-0.912 -0.369,-1.178 -0.248,-0.266 -0.561,-0.398 -0.942,-0.398 -0.38,0 -0.689,0.134 -0.925,0.408 -0.239,0.271 -0.356,0.662 -0.356,1.168 v 7.418 c 0,0.512 0.117,0.898 0.356,1.158 0.236,0.26 0.545,0.391 0.925,0.391 0.381,0 0.694,-0.131 0.942,-0.391 C -0.123,0.822 0,0.461 0,0 m -1.281,2.678 c -0.362,0 -0.67,0.111 -0.926,0.332 -0.258,0.22 -0.385,0.535 -0.385,0.941 0,0.367 0.131,0.668 0.393,0.906 0.263,0.239 0.57,0.358 0.918,0.358 0.336,0 0.633,-0.108 0.892,-0.324 C -0.129,4.676 0,4.363 0,3.951 0,3.551 -0.127,3.24 -0.381,3.016 -0.633,2.791 -0.934,2.678 -1.281,2.678"
             style="fill:#ffffff;fill-opacity:1;fill-rule:nonzero;stroke:none"
             id="path870"
             inkscape:connector-curvature="0" /></g><g
           id="g872"
           transform="translate(319.5195,30.5879)"><path
             d="m 0,0 c 0,-1.051 0.23,-1.846 0.689,-2.383 0.459,-0.539 1.053,-0.808 1.782,-0.808 0.429,0 0.836,0.117 1.218,0.347 0.385,0.231 0.696,0.58 0.938,1.045 0.238,0.465 0.359,1.029 0.359,1.695 0,1.057 -0.232,1.881 -0.697,2.469 C 3.822,2.953 3.211,3.248 2.451,3.248 1.709,3.248 1.115,2.967 0.67,2.402 0.223,1.84 0,1.039 0,0 M 7.514,3.287 V -4.244 C 7.514,-5.105 7.422,-5.848 7.236,-6.469 7.055,-7.088 6.76,-7.602 6.354,-8.006 5.949,-8.41 5.418,-8.713 4.764,-8.908 4.109,-9.105 3.293,-9.203 2.318,-9.203 c -0.892,0 -1.691,0.125 -2.394,0.375 -0.701,0.252 -1.242,0.574 -1.623,0.969 -0.381,0.396 -0.571,0.802 -0.571,1.22 0,0.317 0.108,0.577 0.323,0.774 0.215,0.201 0.476,0.301 0.779,0.301 0.379,0 0.713,-0.168 0.998,-0.504 0.139,-0.17 0.281,-0.344 0.432,-0.518 0.148,-0.176 0.314,-0.324 0.494,-0.447 0.18,-0.123 0.396,-0.215 0.65,-0.276 0.252,-0.058 0.545,-0.089 0.873,-0.089 0.672,0 1.194,0.093 1.565,0.281 0.369,0.185 0.629,0.447 0.777,0.783 0.149,0.334 0.236,0.693 0.262,1.078 0.025,0.383 0.045,0.998 0.056,1.848 C 4.539,-3.967 4.08,-4.391 3.557,-4.682 3.035,-4.973 2.412,-5.119 1.691,-5.119 c -0.867,0 -1.625,0.223 -2.275,0.666 -0.648,0.443 -1.148,1.062 -1.496,1.861 -0.348,0.799 -0.522,1.719 -0.522,2.764 0,0.777 0.106,1.482 0.319,2.107 0.213,0.629 0.513,1.157 0.906,1.588 0.393,0.43 0.846,0.754 1.357,0.973 0.514,0.219 1.077,0.328 1.692,0.328 0.734,0 1.371,-0.143 1.91,-0.422 0.537,-0.283 1.037,-0.725 1.5,-1.326 v 0.351 c 0,0.45 0.109,0.797 0.332,1.045 0.223,0.246 0.508,0.371 0.856,0.371 0.5,0 0.832,-0.164 0.996,-0.49 C 7.432,4.371 7.514,3.9 7.514,3.287"
             style="fill:#ffffff;fill-opacity:1;fill-rule:nonzero;stroke:none"
             id="path874"
             inkscape:connector-curvature="0" /></g><g
           id="g876"
           transform="translate(331.1543,34.3398)"><path
             d="M 0,0 V -0.312 C 0.455,0.289 0.953,0.73 1.496,1.012 2.037,1.293 2.658,1.436 3.361,1.436 4.045,1.436 4.656,1.285 5.195,0.988 5.732,0.689 6.137,0.27 6.4,-0.273 6.572,-0.592 6.684,-0.934 6.732,-1.301 6.783,-1.668 6.811,-2.137 6.811,-2.707 v -4.824 c 0,-0.52 -0.12,-0.912 -0.358,-1.178 -0.236,-0.266 -0.545,-0.398 -0.926,-0.398 -0.386,0 -0.699,0.134 -0.939,0.408 -0.242,0.271 -0.361,0.662 -0.361,1.168 v 4.322 c 0,0.854 -0.12,1.508 -0.358,1.961 -0.236,0.451 -0.709,0.68 -1.42,0.68 -0.461,0 -0.883,-0.139 -1.262,-0.414 C 0.807,-1.258 0.527,-1.637 0.352,-2.117 0.225,-2.504 0.16,-3.225 0.16,-4.283 v -3.248 c 0,-0.526 -0.121,-0.92 -0.365,-1.184 -0.242,-0.262 -0.559,-0.392 -0.943,-0.392 -0.375,0 -0.682,0.134 -0.922,0.408 -0.241,0.271 -0.362,0.662 -0.362,1.168 v 7.494 c 0,0.494 0.108,0.863 0.323,1.107 0.214,0.242 0.509,0.366 0.882,0.366 0.229,0 0.436,-0.055 0.62,-0.163 0.181,-0.109 0.33,-0.269 0.441,-0.484 C -0.055,0.574 0,0.311 0,0"
             style="fill:#ffffff;fill-opacity:1;fill-rule:nonzero;stroke:none"
             id="path878"
             inkscape:connector-curvature="0" /></g><g
           id="g880"
           transform="translate(341.8574,31.3379)"><path
             d="M 0,0 H 4.701 C 4.639,0.887 4.398,1.551 3.984,1.99 3.568,2.432 3.023,2.65 2.346,2.65 1.699,2.65 1.168,2.428 0.754,1.982 0.34,1.535 0.09,0.875 0,0 M 5.07,-1.473 H 0 c 0.006,-0.588 0.125,-1.107 0.355,-1.556 0.233,-0.45 0.54,-0.789 0.922,-1.016 0.383,-0.228 0.805,-0.342 1.268,-0.342 0.31,0 0.594,0.035 0.851,0.108 0.254,0.074 0.504,0.187 0.745,0.343 0.24,0.155 0.461,0.321 0.666,0.498 0.201,0.178 0.464,0.42 0.787,0.723 0.133,0.113 0.322,0.172 0.57,0.172 0.266,0 0.481,-0.074 0.647,-0.221 0.164,-0.146 0.246,-0.349 0.246,-0.617 0,-0.234 -0.092,-0.506 -0.276,-0.82 C 6.598,-4.516 6.32,-4.816 5.949,-5.104 5.578,-5.393 5.115,-5.631 4.555,-5.82 3.994,-6.012 3.35,-6.105 2.621,-6.105 c -1.666,0 -2.961,0.474 -3.885,1.423 -0.924,0.95 -1.386,2.239 -1.386,3.866 0,0.767 0.113,1.478 0.341,2.132 0.229,0.657 0.561,1.217 0.998,1.686 0.436,0.469 0.975,0.828 1.614,1.078 0.64,0.25 1.349,0.375 2.129,0.375 1.011,0 1.88,-0.213 2.605,-0.641 C 5.764,3.387 6.307,2.834 6.668,2.158 7.027,1.48 7.209,0.789 7.209,0.088 7.209,-0.566 7.021,-0.988 6.648,-1.182 6.275,-1.375 5.75,-1.473 5.07,-1.473"
             style="fill:#ffffff;fill-opacity:1;fill-rule:nonzero;stroke:none"
             id="path882"
             inkscape:connector-curvature="0" /></g><g
           id="g884"
           transform="translate(352.3965,30.5215)"><path
             d="M 0,0 C 0,-0.703 0.109,-1.301 0.328,-1.795 0.545,-2.289 0.846,-2.66 1.227,-2.91 1.605,-3.16 2.02,-3.287 2.469,-3.287 c 0.457,0 0.873,0.119 1.25,0.357 0.377,0.237 0.677,0.602 0.902,1.092 0.225,0.49 0.336,1.106 0.336,1.838 0,0.691 -0.111,1.285 -0.336,1.783 C 4.396,2.279 4.092,2.658 3.709,2.922 3.324,3.184 2.906,3.314 2.449,3.314 1.977,3.314 1.551,3.18 1.178,2.912 0.805,2.643 0.514,2.258 0.309,1.754 0.102,1.25 0,0.666 0,0 m 5.1,-3.809 v 0.258 C 4.752,-3.949 4.408,-4.275 4.07,-4.523 3.73,-4.775 3.363,-4.965 2.969,-5.094 2.572,-5.227 2.141,-5.289 1.672,-5.289 c -0.621,0 -1.195,0.131 -1.725,0.393 -0.527,0.263 -0.984,0.638 -1.369,1.126 -0.387,0.487 -0.68,1.059 -0.879,1.719 C -2.5,-1.393 -2.6,-0.68 -2.6,0.086 c 0,1.621 0.395,2.885 1.186,3.791 0.791,0.904 1.832,1.357 3.123,1.357 C 2.457,5.234 3.088,5.105 3.6,4.85 4.113,4.594 4.613,4.197 5.1,3.668 v 3.826 c 0,0.533 0.107,0.934 0.318,1.207 0.213,0.272 0.516,0.408 0.908,0.408 0.393,0 0.694,-0.125 0.906,-0.375 C 7.445,8.482 7.551,8.115 7.551,7.627 V -3.809 C 7.551,-4.303 7.437,-4.672 7.209,-4.92 6.98,-5.166 6.687,-5.289 6.326,-5.289 5.971,-5.289 5.678,-5.162 5.447,-4.906 5.215,-4.648 5.1,-4.283 5.1,-3.809"
             style="fill:#ffffff;fill-opacity:1;fill-rule:nonzero;stroke:none"
             id="path886"
             inkscape:connector-curvature="0" /></g><g
           id="g888"
           transform="translate(368.2168,30.4453)"><path
             d="m 0,0 c 0,-1.031 0.234,-1.824 0.707,-2.377 0.471,-0.555 1.09,-0.834 1.857,-0.834 0.651,0 1.213,0.283 1.686,0.852 0.471,0.566 0.707,1.379 0.707,2.435 C 4.957,0.76 4.859,1.35 4.662,1.844 4.467,2.338 4.187,2.719 3.828,2.988 3.467,3.256 3.045,3.391 2.564,3.391 2.07,3.391 1.629,3.256 1.244,2.988 0.857,2.719 0.553,2.33 0.332,1.82 0.109,1.311 0,0.703 0,0 M -0.125,7.703 V 3.744 C 0.363,4.25 0.859,4.639 1.367,4.906 1.873,5.176 2.5,5.311 3.248,5.311 4.109,5.311 4.863,5.105 5.514,4.699 6.162,4.289 6.664,3.697 7.023,2.922 7.381,2.146 7.561,1.227 7.561,0.162 c 0,-0.785 -0.1,-1.504 -0.299,-2.16 C 7.061,-2.654 6.771,-3.223 6.393,-3.703 6.012,-4.184 5.551,-4.557 5.01,-4.82 4.469,-5.082 3.871,-5.213 3.219,-5.213 c -0.399,0 -0.774,0.047 -1.125,0.143 -0.352,0.093 -0.651,0.218 -0.899,0.375 -0.246,0.154 -0.457,0.314 -0.631,0.478 -0.173,0.164 -0.404,0.412 -0.689,0.742 v -0.257 c 0,-0.487 -0.115,-0.856 -0.35,-1.108 -0.232,-0.25 -0.531,-0.373 -0.892,-0.373 -0.367,0 -0.66,0.123 -0.877,0.373 -0.219,0.252 -0.328,0.621 -0.328,1.108 V 7.59 c 0,0.525 0.105,0.924 0.316,1.191 0.213,0.27 0.51,0.405 0.889,0.405 0.4,0 0.707,-0.129 0.922,-0.385 0.215,-0.258 0.32,-0.621 0.32,-1.098"
             style="fill:#ffffff;fill-opacity:1;fill-rule:nonzero;stroke:none"
             id="path890"
             inkscape:connector-curvature="0" /></g><g
           id="g892"
           transform="translate(379.1387,24.9082)"><path
             d="M 0,0 0.236,0.58 -2.955,8.615 C -3.15,9.076 -3.25,9.414 -3.25,9.623 c 0,0.221 0.059,0.426 0.172,0.615 0.115,0.192 0.271,0.344 0.471,0.457 0.199,0.116 0.406,0.172 0.621,0.172 0.373,0 0.656,-0.119 0.845,-0.357 0.192,-0.237 0.358,-0.576 0.504,-1.02 l 2.194,-6.383 2.08,5.936 c 0.164,0.48 0.314,0.857 0.447,1.131 0.133,0.271 0.273,0.455 0.422,0.549 0.148,0.095 0.359,0.144 0.633,0.144 0.197,0 0.384,-0.053 0.564,-0.158 0.18,-0.104 0.32,-0.244 0.418,-0.422 C 6.219,10.109 6.27,9.924 6.27,9.727 6.242,9.607 6.203,9.436 6.145,9.213 6.088,8.992 6.018,8.766 5.936,8.539 L 2.555,-0.312 C 2.264,-1.092 1.979,-1.701 1.699,-2.145 1.42,-2.588 1.053,-2.93 0.594,-3.166 0.133,-3.404 -0.484,-3.523 -1.264,-3.523 c -0.759,0 -1.33,0.082 -1.709,0.246 -0.381,0.166 -0.57,0.466 -0.57,0.904 0,0.297 0.09,0.527 0.272,0.687 0.179,0.163 0.447,0.245 0.8,0.245 0.141,0 0.278,-0.02 0.41,-0.059 0.165,-0.037 0.307,-0.057 0.426,-0.057 0.297,0 0.533,0.043 0.703,0.133 0.172,0.088 0.325,0.242 0.461,0.461 C -0.334,-0.746 -0.178,-0.424 0,0"
             style="fill:#ffffff;fill-opacity:1;fill-rule:nonzero;stroke:none"
             id="path894"
             inkscape:connector-curvature="0" /></g><g
           id="g896"
           transform="translate(416.7031,35.5508)"><path
             d="m 0,0 h 0.619 v 0.777 c 0,0.815 0.1,1.457 0.307,1.938 0.203,0.478 0.554,0.826 1.047,1.045 0.49,0.217 1.162,0.326 2.015,0.326 1.52,0 2.274,-0.367 2.274,-1.113 C 6.262,2.734 6.182,2.527 6.021,2.357 5.867,2.188 5.678,2.102 5.463,2.102 5.363,2.102 5.186,2.119 4.936,2.16 4.699,2.193 4.484,2.217 4.312,2.217 3.846,2.217 3.547,2.076 3.408,1.801 3.281,1.525 3.213,1.133 3.213,0.617 V 0 h 0.633 c 0.99,0 1.48,-0.297 1.48,-0.896 0,-0.418 -0.127,-0.69 -0.392,-0.805 -0.262,-0.113 -0.623,-0.17 -1.088,-0.17 H 3.213 v -6.871 c 0,-0.512 -0.121,-0.901 -0.369,-1.168 -0.242,-0.274 -0.555,-0.406 -0.944,-0.406 -0.367,0 -0.67,0.132 -0.918,0.406 -0.244,0.267 -0.363,0.656 -0.363,1.168 v 6.871 h -0.715 c -0.388,0 -0.681,0.084 -0.892,0.262 -0.209,0.17 -0.315,0.398 -0.315,0.677 C -1.303,-0.309 -0.869,0 0,0"
             style="fill:#ffffff;fill-opacity:1;fill-rule:nonzero;stroke:none"
             id="path898"
             inkscape:connector-curvature="0" /></g><g
           id="g900"
           transform="translate(425.1934,28.9766)"><path
             d="m 0,0 v -2.168 c 0,-0.523 -0.133,-0.92 -0.375,-1.18 -0.246,-0.265 -0.559,-0.394 -0.937,-0.394 -0.381,0 -0.688,0.131 -0.926,0.4 -0.237,0.264 -0.362,0.656 -0.362,1.174 v 7.223 c 0,1.166 0.42,1.748 1.262,1.748 0.434,0 0.742,-0.135 0.934,-0.408 0.189,-0.274 0.295,-0.674 0.316,-1.208 0.309,0.534 0.625,0.934 0.949,1.208 0.332,0.273 0.762,0.408 1.309,0.408 0.549,0 1.072,-0.135 1.586,-0.408 C 4.271,6.121 4.527,5.758 4.527,5.311 4.527,4.996 4.416,4.73 4.201,4.529 3.98,4.32 3.746,4.217 3.494,4.217 3.395,4.217 3.164,4.279 2.803,4.396 2.438,4.51 2.113,4.57 1.84,4.57 1.459,4.57 1.146,4.467 0.908,4.271 0.666,4.066 0.477,3.775 0.344,3.385 0.215,2.99 0.125,2.52 0.07,1.98 0.021,1.439 0,0.777 0,0"
             style="fill:#ffffff;fill-opacity:1;fill-rule:nonzero;stroke:none"
             id="path902"
             inkscape:connector-curvature="0" /></g><g
           id="g904"
           transform="translate(432.0391,31.3438)"><path
             d="M 0,0 H 4.701 C 4.639,0.885 4.404,1.549 3.988,1.986 3.57,2.428 3.029,2.646 2.348,2.646 1.701,2.646 1.17,2.426 0.756,1.977 0.342,1.531 0.088,0.873 0,0 M 5.074,-1.475 H 0 c 0.01,-0.588 0.125,-1.111 0.355,-1.558 0.235,-0.447 0.54,-0.787 0.924,-1.018 0.385,-0.226 0.805,-0.34 1.27,-0.34 0.31,0 0.592,0.034 0.849,0.112 0.254,0.07 0.504,0.185 0.745,0.341 0.242,0.153 0.461,0.319 0.664,0.5 0.203,0.174 0.466,0.417 0.791,0.719 0.134,0.114 0.324,0.174 0.568,0.174 0.268,0 0.48,-0.074 0.648,-0.223 0.166,-0.146 0.245,-0.349 0.245,-0.617 0,-0.234 -0.09,-0.508 -0.268,-0.818 C 6.604,-4.521 6.328,-4.82 5.955,-5.109 5.58,-5.395 5.115,-5.637 4.557,-5.824 3.998,-6.014 3.352,-6.109 2.625,-6.109 c -1.67,0 -2.963,0.472 -3.887,1.422 -0.924,0.951 -1.39,2.242 -1.39,3.867 0,0.767 0.117,1.478 0.347,2.134 0.225,0.659 0.557,1.217 0.998,1.688 0.436,0.471 0.971,0.828 1.614,1.078 0.636,0.25 1.345,0.375 2.127,0.375 1.011,0 1.88,-0.215 2.607,-0.646 C 5.764,3.387 6.314,2.832 6.67,2.154 7.031,1.475 7.211,0.787 7.211,0.08 7.211,-0.568 7.023,-0.99 6.65,-1.186 6.277,-1.379 5.752,-1.475 5.074,-1.475"
             style="fill:#ffffff;fill-opacity:1;fill-rule:nonzero;stroke:none"
             id="path906"
             inkscape:connector-curvature="0" /></g><g
           id="g908"
           transform="translate(442.8281,31.3438)"><path
             d="M 0,0 H 4.701 C 4.637,0.885 4.396,1.549 3.986,1.986 3.564,2.428 3.023,2.646 2.344,2.646 1.697,2.646 1.168,2.426 0.75,1.977 0.338,1.531 0.084,0.873 0,0 M 5.072,-1.475 H 0 c 0.006,-0.588 0.125,-1.111 0.354,-1.558 0.232,-0.447 0.539,-0.787 0.921,-1.018 0.383,-0.226 0.805,-0.34 1.272,-0.34 0.307,0 0.592,0.034 0.844,0.112 0.259,0.07 0.505,0.185 0.75,0.341 0.242,0.153 0.461,0.319 0.664,0.5 0.199,0.174 0.465,0.417 0.789,0.719 0.135,0.114 0.326,0.174 0.568,0.174 0.268,0 0.483,-0.074 0.65,-0.223 0.165,-0.146 0.241,-0.349 0.241,-0.617 0,-0.234 -0.088,-0.508 -0.274,-0.818 C 6.602,-4.521 6.324,-4.82 5.949,-5.109 5.578,-5.395 5.109,-5.637 4.553,-5.824 3.996,-6.014 3.346,-6.109 2.619,-6.109 c -1.668,0 -2.959,0.472 -3.887,1.422 -0.923,0.951 -1.388,2.242 -1.388,3.867 0,0.767 0.115,1.478 0.347,2.134 0.227,0.659 0.559,1.217 0.997,1.688 C -0.877,3.473 -0.34,3.83 0.301,4.08 0.939,4.33 1.652,4.455 2.43,4.455 3.439,4.455 4.309,4.24 5.043,3.809 5.764,3.387 6.309,2.832 6.664,2.154 7.023,1.475 7.209,0.787 7.209,0.08 7.209,-0.568 7.018,-0.99 6.648,-1.186 6.273,-1.379 5.748,-1.475 5.072,-1.475"
             style="fill:#ffffff;fill-opacity:1;fill-rule:nonzero;stroke:none"
             id="path910"
             inkscape:connector-curvature="0" /></g><g
           id="g912"
           transform="translate(458.6641,30.5527)"><path
             d="m 0,0 c 0,0.686 -0.105,1.273 -0.314,1.764 -0.209,0.492 -0.498,0.867 -0.866,1.127 -0.367,0.263 -0.783,0.396 -1.232,0.396 -0.715,0 -1.318,-0.283 -1.809,-0.844 -0.492,-0.566 -0.74,-1.394 -0.74,-2.492 0,-1.027 0.244,-1.834 0.736,-2.406 0.487,-0.574 1.086,-0.859 1.813,-0.859 0.428,0 0.83,0.126 1.197,0.373 0.371,0.252 0.664,0.627 0.883,1.127 C -0.111,-1.312 0,-0.707 0,0 M -5.084,3.768 V 3.457 c 0.486,0.602 0.994,1.043 1.525,1.324 0.518,0.285 1.118,0.428 1.782,0.428 C -0.982,5.209 -0.242,5 0.43,4.592 1.102,4.178 1.629,3.576 2.02,2.785 2.408,1.99 2.605,1.055 2.605,-0.029 2.605,-0.824 2.492,-1.561 2.27,-2.23 2.045,-2.898 1.732,-3.457 1.34,-3.91 0.947,-4.359 0.484,-4.711 -0.049,-4.955 -0.592,-5.197 -1.16,-5.318 -1.777,-5.318 c -0.739,0 -1.364,0.148 -1.866,0.447 -0.502,0.291 -0.982,0.732 -1.441,1.305 v -3.893 c 0,-1.135 -0.416,-1.709 -1.244,-1.709 -0.49,0 -0.809,0.147 -0.971,0.439 -0.152,0.299 -0.234,0.723 -0.234,1.292 V 3.756 c 0,0.494 0.107,0.859 0.32,1.107 0.215,0.239 0.512,0.364 0.885,0.364 0.369,0 0.666,-0.125 0.896,-0.373 0.235,-0.254 0.348,-0.612 0.348,-1.086"
             style="fill:#ffffff;fill-opacity:1;fill-rule:nonzero;stroke:none"
             id="path914"
             inkscape:connector-curvature="0" /></g><g
           id="g916"
           transform="translate(465.1641,34.3086)"><path
             d="m 0,0 v -7.502 c 0,-0.516 -0.123,-0.908 -0.369,-1.172 -0.25,-0.269 -0.561,-0.4 -0.942,-0.4 -0.38,0 -0.685,0.133 -0.927,0.406 -0.235,0.275 -0.356,0.664 -0.356,1.166 v 7.428 c 0,0.51 0.121,0.894 0.356,1.154 0.242,0.264 0.547,0.391 0.927,0.391 0.381,0 0.692,-0.127 0.942,-0.391 C -0.123,0.82 0,0.457 0,0 m -1.283,2.678 c -0.363,0 -0.67,0.115 -0.924,0.336 -0.26,0.222 -0.387,0.531 -0.387,0.935 0,0.369 0.131,0.67 0.397,0.91 0.261,0.235 0.566,0.356 0.914,0.356 0.34,0 0.635,-0.106 0.892,-0.319 C -0.131,4.678 0,4.361 0,3.949 0,3.551 -0.127,3.238 -0.377,3.014 -0.631,2.793 -0.932,2.678 -1.283,2.678"
             style="fill:#ffffff;fill-opacity:1;fill-rule:nonzero;stroke:none"
             id="path918"
             inkscape:connector-curvature="0" /></g><g
           id="g920"
           transform="translate(473.5234,26.418)"><path
             d="M 0,0 -2.283,3.766 -3.691,2.438 V 0.371 c 0,-0.498 -0.133,-0.881 -0.397,-1.148 -0.258,-0.274 -0.566,-0.407 -0.906,-0.407 -0.399,0 -0.715,0.131 -0.942,0.401 -0.226,0.263 -0.343,0.656 -0.343,1.174 v 11.062 c 0,0.574 0.115,1.012 0.332,1.315 0.222,0.304 0.545,0.451 0.953,0.451 0.398,0 0.713,-0.137 0.949,-0.41 0.234,-0.272 0.354,-0.674 0.354,-1.204 V 5.312 l 2.916,3.063 c 0.361,0.377 0.632,0.641 0.826,0.779 0.189,0.139 0.42,0.207 0.689,0.207 0.326,0 0.594,-0.103 0.817,-0.308 C 1.768,8.848 1.877,8.588 1.877,8.279 1.877,7.9 1.523,7.391 0.822,6.758 L -0.555,5.496 2.104,1.312 C 2.297,1 2.443,0.77 2.527,0.607 2.611,0.447 2.658,0.287 2.658,0.145 2.658,-0.268 2.543,-0.59 2.316,-0.83 2.092,-1.066 1.793,-1.184 1.432,-1.184 c -0.317,0 -0.565,0.08 -0.735,0.256 C 0.527,-0.756 0.291,-0.445 0,0"
             style="fill:#ffffff;fill-opacity:1;fill-rule:nonzero;stroke:none"
             id="path922"
             inkscape:connector-curvature="0" /></g><g
           id="g924"
           transform="translate(479.1602,25.2344)"><path
             d="m 0,0 c -0.393,0 -0.729,0.125 -1.014,0.381 -0.285,0.248 -0.429,0.605 -0.429,1.064 0,0.385 0.138,0.719 0.41,0.994 0.275,0.28 0.607,0.42 1.008,0.42 0.398,0 0.736,-0.14 1.023,-0.412 C 1.277,2.172 1.42,1.834 1.42,1.445 1.42,0.992 1.277,0.637 0.998,0.385 0.711,0.125 0.379,0 0,0"
             style="fill:#ffffff;fill-opacity:1;fill-rule:nonzero;stroke:none"
             id="path926"
             inkscape:connector-curvature="0" /></g><g
           id="g928"
           transform="translate(492.0586,28.4434)"><path
             d="m 0,0 c 0,-0.32 -0.098,-0.668 -0.291,-1.033 -0.191,-0.371 -0.488,-0.719 -0.887,-1.051 -0.394,-0.332 -0.89,-0.602 -1.494,-0.803 -0.601,-0.203 -1.281,-0.306 -2.031,-0.306 -1.606,0 -2.858,0.468 -3.758,1.4 -0.894,0.936 -1.346,2.189 -1.346,3.76 0,1.068 0.205,2.006 0.619,2.824 0.409,0.814 1.004,1.447 1.782,1.895 0.779,0.447 1.717,0.669 2.795,0.669 0.673,0 1.287,-0.097 1.851,-0.294 0.561,-0.196 1.033,-0.452 1.426,-0.76 0.387,-0.315 0.686,-0.643 0.889,-0.992 0.207,-0.352 0.308,-0.68 0.308,-0.987 C -0.137,4.014 -0.25,3.75 -0.48,3.535 -0.715,3.32 -0.996,3.211 -1.318,3.211 c -0.219,0 -0.399,0.057 -0.541,0.166 -0.145,0.111 -0.305,0.289 -0.479,0.541 -0.318,0.478 -0.646,0.842 -0.996,1.08 -0.344,0.242 -0.781,0.361 -1.314,0.361 -0.762,0 -1.383,-0.297 -1.854,-0.896 -0.467,-0.596 -0.703,-1.42 -0.703,-2.455 0,-0.488 0.062,-0.94 0.184,-1.348 0.117,-0.406 0.291,-0.756 0.519,-1.043 0.231,-0.287 0.504,-0.506 0.826,-0.654 0.324,-0.154 0.682,-0.227 1.065,-0.227 0.521,0 0.966,0.121 1.336,0.362 0.377,0.24 0.703,0.607 0.986,1.101 0.158,0.291 0.328,0.518 0.51,0.684 0.181,0.164 0.408,0.25 0.675,0.25 0.317,0 0.581,-0.123 0.786,-0.363 C -0.107,0.529 0,0.271 0,0"
             style="fill:#ffffff;fill-opacity:1;fill-rule:nonzero;stroke:none"
             id="path930"
             inkscape:connector-curvature="0" /></g><g
           id="g932"
           transform="translate(500.6445,30.5039)"><path
             d="M 0,0 C 0,1.059 -0.234,1.881 -0.697,2.469 -1.16,3.064 -1.787,3.357 -2.572,3.357 -3.08,3.357 -3.527,3.225 -3.914,2.963 -4.301,2.701 -4.596,2.314 -4.805,1.799 -5.014,1.285 -5.119,0.686 -5.119,0 c 0,-0.678 0.101,-1.268 0.308,-1.773 0.209,-0.51 0.502,-0.897 0.887,-1.166 0.385,-0.266 0.834,-0.405 1.352,-0.405 0.785,0 1.412,0.297 1.875,0.893 C -0.234,-1.861 0,-1.041 0,0 m 2.604,0 c 0,-0.77 -0.122,-1.484 -0.356,-2.139 -0.246,-0.652 -0.592,-1.213 -1.049,-1.677 -0.455,-0.469 -1.002,-0.829 -1.633,-1.08 -0.638,-0.249 -1.349,-0.375 -2.138,-0.375 -0.785,0 -1.492,0.126 -2.121,0.382 -0.623,0.248 -1.17,0.614 -1.625,1.082 -0.461,0.477 -0.809,1.034 -1.053,1.676 -0.229,0.645 -0.35,1.356 -0.35,2.131 0,0.787 0.123,1.506 0.358,2.158 0.242,0.655 0.59,1.213 1.039,1.674 0.451,0.461 0.994,0.816 1.631,1.07 0.644,0.248 1.349,0.373 2.121,0.373 0.785,0 1.498,-0.125 2.138,-0.38 C 0.205,4.643 0.75,4.279 1.211,3.814 1.668,3.34 2.014,2.785 2.25,2.143 2.484,1.492 2.604,0.783 2.604,0"
             style="fill:#ffffff;fill-opacity:1;fill-rule:nonzero;stroke:none"
             id="path934"
             inkscape:connector-curvature="0" /></g><g
           id="g936"
           transform="translate(513.1406,30.3145)"><path
             d="m 0,0 v -3.447 c 0,-0.547 -0.121,-0.951 -0.369,-1.227 -0.25,-0.273 -0.572,-0.408 -0.979,-0.408 -0.392,0 -0.713,0.135 -0.951,0.408 -0.246,0.276 -0.371,0.68 -0.371,1.227 v 4.131 c 0,0.654 -0.021,1.162 -0.064,1.525 -0.045,0.354 -0.168,0.654 -0.362,0.883 -0.197,0.234 -0.509,0.351 -0.931,0.351 -0.85,0 -1.407,-0.291 -1.676,-0.88 C -5.971,1.986 -6.109,1.148 -6.109,0.055 v -3.502 c 0,-0.537 -0.123,-0.946 -0.362,-1.223 -0.25,-0.273 -0.568,-0.412 -0.965,-0.412 -0.396,0 -0.716,0.139 -0.966,0.412 -0.252,0.277 -0.377,0.686 -0.377,1.223 v 7.42 c 0,0.488 0.111,0.859 0.336,1.111 0.228,0.256 0.525,0.381 0.888,0.381 0.358,0 0.653,-0.123 0.893,-0.356 0.236,-0.238 0.353,-0.566 0.353,-0.984 V 3.881 c 0.454,0.535 0.936,0.931 1.446,1.18 0.515,0.259 1.082,0.386 1.713,0.386 0.65,0 1.211,-0.131 1.677,-0.39 0.469,-0.26 0.854,-0.655 1.161,-1.176 0.439,0.527 0.908,0.922 1.41,1.18 0.5,0.257 1.052,0.386 1.662,0.386 0.705,0 1.32,-0.142 1.834,-0.42 C 5.104,4.75 5.486,4.348 5.74,3.832 5.961,3.359 6.07,2.623 6.07,1.615 V -3.447 C 6.07,-3.994 5.949,-4.398 5.703,-4.674 5.457,-4.947 5.129,-5.082 4.725,-5.082 4.33,-5.082 4.01,-4.943 3.76,-4.67 3.51,-4.393 3.383,-3.984 3.383,-3.447 V 0.914 C 3.383,1.473 3.359,1.918 3.314,2.252 3.268,2.59 3.137,2.873 2.932,3.1 2.719,3.326 2.4,3.443 1.979,3.443 1.637,3.443 1.312,3.336 1.004,3.135 0.697,2.938 0.457,2.658 0.283,2.322 0.098,1.885 0,1.109 0,0"
             style="fill:#ffffff;fill-opacity:1;fill-rule:nonzero;stroke:none"
             id="path938"
             inkscape:connector-curvature="0" /></g><g
           id="g940"
           transform="translate(392.4355,31.1328)"><path
             d="M 0,0 -0.002,0.01 Z"
             style="fill:#ffffff;fill-opacity:1;fill-rule:nonzero;stroke:none"
             id="path942"
             inkscape:connector-curvature="0" /></g><g
           id="g944"
           transform="translate(392.5684,30.3027)"><path
             d="M 0,0 H 0.002 C -0.047,0.236 -0.088,0.471 -0.117,0.703 -0.088,0.469 -0.047,0.234 0,0"
             style="fill:#ffffff;fill-opacity:1;fill-rule:nonzero;stroke:none"
             id="path946"
             inkscape:connector-curvature="0" /></g><g
           id="g948"
           transform="translate(393.4258,27.8965)"><path
             d="M 0,0 C -0.006,0.01 -0.01,0.021 -0.016,0.033 -0.01,0.021 -0.006,0.01 0,0"
             style="fill:#ffffff;fill-opacity:1;fill-rule:nonzero;stroke:none"
             id="path950"
             inkscape:connector-curvature="0" /></g><g
           id="g952"
           transform="translate(393.3437,28.0566)"><path
             d="M 0,0 -0.064,0.135 C -0.043,0.088 -0.021,0.045 0,0"
             style="fill:#ffffff;fill-opacity:1;fill-rule:nonzero;stroke:none"
             id="path954"
             inkscape:connector-curvature="0" /></g><g
           id="g956"
           transform="translate(392.8086,29.377)"><path
             d="M 0,0 C 0.127,-0.4 0.281,-0.789 0.457,-1.158 0.277,-0.781 0.127,-0.393 0.004,0 Z"
             style="fill:#ffffff;fill-opacity:1;fill-rule:nonzero;stroke:none"
             id="path958"
             inkscape:connector-curvature="0" /></g><g
           id="g960"
           transform="translate(402.4727,41.0684)"><path
             d="m 0,0 c 0.502,0 0.871,-0.039 1.295,-0.111 l 0.121,0.763 c 0,0 -1.172,0.36 -2.711,0.235 l -0.121,0.414 c 0.479,0.101 0.838,0.527 0.838,1.035 0,0.582 -0.475,1.053 -1.057,1.053 -0.584,0 -1.056,-0.471 -1.056,-1.053 0,-0.508 0.359,-0.934 0.836,-1.035 L -1.721,0.838 C -3.355,0.613 -4.654,-0.023 -4.654,-0.023 l 0.228,-0.706 c 0.988,0.329 1.846,0.53 2.625,0.614 C -1.039,-0.035 -0.467,0 0,0"
             style="fill:#ffffff;fill-opacity:1;fill-rule:nonzero;stroke:none"
             id="path962"
             inkscape:connector-curvature="0" /></g><g
           id="g964"
           transform="translate(393.4062,37.2109)"><path
             d="M 0,0 0.006,0.008 C 0.045,0.057 0.082,0.104 0.119,0.15 l -0.312,0.225 -0.489,0.357 c -0.027,-0.039 -0.797,-0.744 -1.402,-2.048 -0.025,0.041 -0.057,0.082 -0.09,0.119 -0.181,0.199 -0.435,0.301 -0.758,0.295 h -0.015 c -0.199,0 -0.336,0.066 -0.426,0.146 0.088,0.113 0.143,0.256 0.143,0.414 0,0.367 -0.301,0.668 -0.67,0.668 -0.37,0 -0.668,-0.301 -0.668,-0.668 0,-0.371 0.298,-0.67 0.668,-0.67 0.058,0 0.113,0.01 0.168,0.022 0.164,-0.184 0.423,-0.342 0.806,-0.334 0.197,0.002 0.342,-0.049 0.438,-0.156 0.111,-0.122 0.148,-0.295 0.16,-0.428 L -2.33,-1.912 c -0.438,-1.19 -0.313,-2.67 -0.313,-2.67 l 1.057,-0.043 c 0.022,0.539 0.1,1.482 0.373,2.23 C -0.686,-0.945 -0.025,-0.039 0,0"
             style="fill:#ffffff;fill-opacity:1;fill-rule:nonzero;stroke:none"
             id="path966"
             inkscape:connector-curvature="0" /></g><g
           id="g968"
           transform="translate(411.6719,40.1855)"><path
             d="m 0,0 c -0.367,0 -0.668,-0.299 -0.668,-0.67 0,-0.057 0.008,-0.111 0.023,-0.164 -0.183,-0.166 -0.343,-0.428 -0.337,-0.811 0.003,-0.197 -0.047,-0.339 -0.155,-0.437 -0.084,-0.074 -0.191,-0.115 -0.295,-0.141 -0.787,1.104 -1.756,1.776 -1.756,1.776 L -3.947,-1.26 c 0.574,-0.521 1.16,-1.176 1.728,-1.99 0.395,-0.564 0.799,-1.291 1.137,-2.016 l 1.023,0.487 c 0,0 -0.466,1.156 -1.125,2.191 0.114,0.041 0.229,0.104 0.33,0.193 0.202,0.18 0.299,0.436 0.293,0.758 -0.001,0.207 0.067,0.348 0.149,0.442 0.115,-0.088 0.258,-0.143 0.412,-0.143 0.371,0 0.67,0.299 0.67,0.668 C 0.67,-0.299 0.371,0 0,0"
             style="fill:#ffffff;fill-opacity:1;fill-rule:nonzero;stroke:none"
             id="path970"
             inkscape:connector-curvature="0" /></g><g
           id="g972"
           transform="translate(409.0156,30.9824)"><path
             d="m 0,0 c -1.41,-0.686 -3.729,-1.594 -6.781,-2.02 -1.199,-0.166 -2.36,-0.226 -3.428,-0.226 -1.391,0 -2.619,0.103 -3.562,0.223 -1.077,0.134 -1.917,0.3 -2.432,0.418 0.123,-0.393 0.273,-0.782 0.453,-1.159 0.004,-0.009 0.008,-0.021 0.008,-0.021 0.027,-0.051 0.049,-0.096 0.07,-0.141 0.022,-0.043 0.043,-0.086 0.067,-0.127 0.005,-0.011 0.009,-0.023 0.015,-0.033 0.303,-0.57 0.668,-1.094 1.082,-1.549 1.44,-1.574 2.906,-1.824 2.92,-1.826 l 0.024,-0.002 0.021,-0.008 c 0.014,-0.006 1.313,-0.425 3.289,-0.425 1.945,0 3.856,0.392 5.674,1.167 1.348,0.69 2.623,1.737 3.254,2.67 0.488,0.723 0.842,1.493 1.051,2.293 C 1.836,-0.34 1.924,0.342 1.871,1.061 1.475,0.793 0.848,0.414 0,0"
             style="fill:#ffffff;fill-opacity:1;fill-rule:nonzero;stroke:none"
             id="path974"
             inkscape:connector-curvature="0" /></g><g
           id="g976"
           transform="translate(397.8867,37.6133)"><path
             d="m 0,0 c 1.557,0 2.816,-1.262 2.816,-2.818 0,-1.555 -1.259,-2.815 -2.816,-2.815 -1.555,0 -2.814,1.26 -2.814,2.815 C -2.814,-1.262 -1.555,0 0,0 m 8.24,-0.07 c 0.961,0 1.744,-0.782 1.744,-1.742 0,-0.963 -0.783,-1.745 -1.744,-1.745 -0.961,0 -1.742,0.782 -1.742,1.745 0,0.96 0.781,1.742 1.742,1.742 M -4.027,-0.736 C -4.068,-0.797 -4.68,-1.662 -5.162,-2.99 -5.525,-3.984 -5.51,-5.434 -5.51,-5.449 v -0.004 c 0,-0.34 0.02,-0.676 0.057,-1.01 l 0.002,-0.017 c 0.004,-0.043 0.012,-0.084 0.015,-0.127 0.03,-0.233 0.071,-0.467 0.12,-0.704 0.701,-0.177 4.879,-1.152 9.546,-0.501 2.928,0.408 5.151,1.273 6.5,1.927 1.122,0.543 1.842,1.035 2.12,1.239 C 12.572,-3.619 11.809,-2.006 11.107,-1 9.102,1.865 6.939,2.6 5.83,2.783 5.406,2.852 5.066,2.893 4.586,2.893 4.139,2.893 3.584,2.855 2.844,2.777 2.1,2.701 1.271,2.506 0.311,2.182 -1.035,1.73 -2.254,1.023 -3.215,0.135 L -3.246,0.104 c -0.143,-0.131 -0.44,-0.407 -0.781,-0.84"
             style="fill:#ffffff;fill-opacity:1;fill-rule:nonzero;stroke:none"
             id="path978"
             inkscape:connector-curvature="0" /></g></g></g></g></svg>