<?xml version="1.0" encoding="UTF-8" standalone="no"?>
<svg
   xmlns:dc="http://purl.org/dc/elements/1.1/"
   xmlns:cc="http://creativecommons.org/ns#"
   xmlns:rdf="http://www.w3.org/1999/02/22-rdf-syntax-ns#"
   xmlns:svg="http://www.w3.org/2000/svg"
   xmlns="http://www.w3.org/2000/svg"
   xmlns:sodipodi="http://sodipodi.sourceforge.net/DTD/sodipodi-0.dtd"
   xmlns:inkscape="http://www.inkscape.org/namespaces/inkscape"
   xml:space="preserve"
   style="enable-background:new 0 0 400 200;"
   viewBox="0 0 400 200"
   y="0px"
   x="0px"
   id="Layer_1"
   version="1.1"
   sodipodi:docname="goggle_open_new.svg"
   inkscape:version="0.92.1 r15371"><sodipodi:namedview
     pagecolor="#ffffff"
     bordercolor="#666666"
     borderopacity="1"
     objecttolerance="10"
     gridtolerance="10"
     guidetolerance="10"
     inkscape:pageopacity="0"
     inkscape:pageshadow="2"
     inkscape:window-width="1366"
     inkscape:window-height="705"
     id="namedview4514"
     showgrid="false"
     inkscape:zoom="2.11"
     inkscape:cx="208.2099"
     inkscape:cy="97.990027"
     inkscape:window-x="-8"
     inkscape:window-y="-8"
     inkscape:window-maximized="1"
     inkscape:current-layer="g4696" /><metadata
     id="metadata4706"><rdf:RDF><cc:Work
         rdf:about=""><dc:format>image/svg+xml</dc:format><dc:type
           rdf:resource="http://purl.org/dc/dcmitype/StillImage" /><dc:title></dc:title></cc:Work></rdf:RDF></metadata><defs
     id="defs4704" /><style
     id="style4678"
     type="text/css">
	.st0{fill:#3D3D3D;}
	.st1{fill:#24BCE3;}
	.st2{fill:#303030;}
	.st3{fill:none;stroke:#000000;stroke-width:5.000000e-03;stroke-miterlimit:10;}
</style><g
     id="g4699"><g
       id="g4696"><path
         id="path4680"
         d="M 200 0.05078125 C 179 0.05078125 158.00078 2.0003906 137.30078 5.9003906 C 131.30078 7.1003906 126.40039 13.199219 126.40039 19.199219 L 126.40039 41.412109 C 126.7705 41.383912 205.44237 35.401211 273.24023 41.373047 C 273.36447 41.38399 273.47641 41.398932 273.59961 41.410156 L 273.59961 19.199219 C 273.59961 13.199219 268.79922 7.1003906 262.69922 5.9003906 C 241.99922 2.0003906 221 0.05078125 200 0.05078125 z "
         style="fill:#0f0f0f;fill-opacity:1;stroke:none" /><g
         id="g4690"><path
           style="fill:#24bce3;fill-opacity:1"
           id="path4682"
           d="M 8.4003906 84.699219 C 3.8003906 84.699219 0.099609375 88.4 0.099609375 93 L 0.099609375 142.19922 C 0.099609375 146.79922 3.8003906 150.5 8.4003906 150.5 L 37.542969 150.5 C 28.686197 123.80103 32.977218 98.462795 36.753906 84.699219 L 8.4003906 84.699219 z " /><path
           id="path4684"
           d="M 20.900391 74 C 14.800391 74 9.9003906 78.9 9.9003906 85 L 9.9003906 150.30078 C 9.9003906 156.40078 14.800391 161.30078 20.900391 161.30078 L 41.90625 161.30078 C 41.883704 161.25319 41.860402 161.21198 41.837891 161.16406 C 21.489525 117.85377 40.120153 74.432456 40.306641 74 L 20.900391 74 z "
           style="fill:#0f0f0f;fill-opacity:1" /><path
           style="fill:#24bce3;fill-opacity:1"
           id="path4686"
           d="M 363.45508 84.699219 C 370.02997 110.69624 365.33221 136.67552 361.7207 150.47656 C 361.88026 150.48561 362.03731 150.5 362.19922 150.5 L 391.59961 150.5 C 396.19961 150.5 399.90039 146.79922 399.90039 142.19922 L 399.90039 93 C 399.90039 88.4 396.19961 84.699219 391.59961 84.699219 L 363.45508 84.699219 z " /><path
           id="path4688"
           d="M 360.08008 74 C 375.9024 115.06021 358.64062 160.62305 358.64062 160.62305 L 357.86523 161.30078 L 379 161.30078 C 385.1 161.30078 390 156.40078 390 150.30078 L 390 85 C 390 78.9 385.1 74 379 74 L 360.08008 74 z "
           style="fill:#0f0f0f;fill-opacity:1;stroke:none;stroke-opacity:1" /></g><path
         style="fill:none;stroke:#0a0a0a;stroke-width:9.535;stroke-miterlimit:4;stroke-dasharray:none;stroke-opacity:1;fill-opacity:1"
         id="path4692"
         d="m 63.452674,41.050041 c -8.192333,1.037542 -18.890553,8.488978 -22.649388,16.600668 -17.252087,38.106077 -17.252087,76.306471 0,114.412551 3.758835,8.1117 14.457055,15.56313 22.649388,16.60066 24.095094,2.73534 48.093806,4.81042 72.188896,6.13094 8.19233,0.4716 18.11952,-4.90475 22.74577,-12.07322 3.85522,-6.0366 7.99958,-12.16753 12.43307,-18.29846 5.10816,-7.16847 17.15571,-13.01644 26.31184,-13.01644 1.92761,0 3.9516,0 5.87921,0 9.25251,0 21.20367,5.84797 26.31184,13.01644 4.4335,6.13093 8.57784,12.26186 12.43307,18.29846 4.52987,7.07415 14.45705,12.54482 22.74577,12.07322 24.09509,-1.32052 48.09381,-3.3956 72.18889,-6.13094 8.19233,-1.03753 18.89056,-8.48896 22.6494,-16.60066 17.25208,-38.10608 17.25208,-76.306474 0,-114.412551 -3.75884,-8.11169 -14.45707,-15.563126 -22.6494,-16.600668 -91.17582,-10.469739 -182.1589,-10.469739 -273.238356,0 z"
         class="st2" /><path
         style="fill:none;fill-opacity:1;stroke:#0f0f0f;stroke-width:7.96565342;stroke-linecap:round;stroke-linejoin:round;stroke-miterlimit:4;stroke-dasharray:none;stroke-opacity:1"
         id="path4692-0"
         d="m 64.461972,42.905699 c -8.135604,1.011097 -18.759747,8.272604 -22.492559,16.177539 -17.132628,37.134791 -17.132628,74.361512 0,111.496302 3.732812,7.90493 14.356955,15.16645 22.492559,16.17755 23.928251,2.66559 47.760778,4.68779 71.689048,5.97463 8.1356,0.45961 17.99403,-4.77972 22.58827,-11.76548 3.8285,-5.88273 7.94418,-11.8574 12.34696,-17.83205 5.0728,-6.98574 17.03692,-12.68464 26.12965,-12.68464 1.91426,0 3.92424,0 5.83849,0 9.18846,0 21.05687,5.6989 26.12966,12.68464 4.4028,5.97465 8.51845,11.94932 12.34696,17.83205 4.49852,6.89385 14.35697,12.22509 22.58828,11.76548 23.92826,-1.28684 47.76079,-3.30904 71.68904,-5.97463 8.13561,-1.0111 18.75974,-8.27262 22.49256,-16.17755 17.13262,-37.13479 17.13262,-74.361511 0,-111.496302 -3.73282,-7.904935 -14.35695,-15.166442 -22.49256,-16.177539 -90.5445,-10.202877 -180.89759,-10.202877 -271.346358,0 z"
         class="st2"
         inkscape:connector-curvature="0" /></g></g></svg>