<?xml version="1.0" encoding="UTF-8" standalone="no"?>
<!-- Generator: Adobe Illustrator 21.0.0, SVG Export Plug-In . SVG Version: 6.00 Build 0)  -->

<svg
   xmlns:dc="http://purl.org/dc/elements/1.1/"
   xmlns:cc="http://creativecommons.org/ns#"
   xmlns:rdf="http://www.w3.org/1999/02/22-rdf-syntax-ns#"
   xmlns:svg="http://www.w3.org/2000/svg"
   xmlns="http://www.w3.org/2000/svg"
   xmlns:sodipodi="http://sodipodi.sourceforge.net/DTD/sodipodi-0.dtd"
   xmlns:inkscape="http://www.inkscape.org/namespaces/inkscape"
   version="1.1"
   id="Layer_1"
   x="0px"
   y="0px"
   viewBox="0 0 400 200"
   style="enable-background:new 0 0 400 200;"
   xml:space="preserve"
   sodipodi:docname="goggle_new.svg"
   inkscape:version="0.92.1 r15371"><metadata
     id="metadata4706"><rdf:RDF><cc:Work
         rdf:about=""><dc:format>image/svg+xml</dc:format><dc:type
           rdf:resource="http://purl.org/dc/dcmitype/StillImage" /><dc:title></dc:title></cc:Work></rdf:RDF></metadata><defs
     id="defs4704" /><sodipodi:namedview
     pagecolor="#ffffff"
     bordercolor="#666666"
     borderopacity="1"
     objecttolerance="10"
     gridtolerance="10"
     guidetolerance="10"
     inkscape:pageopacity="0"
     inkscape:pageshadow="2"
     inkscape:window-width="1366"
     inkscape:window-height="705"
     id="namedview4702"
     showgrid="false"
     inkscape:zoom="2.16"
     inkscape:cx="205.77596"
     inkscape:cy="116.70984"
     inkscape:window-x="-8"
     inkscape:window-y="-8"
     inkscape:window-maximized="1"
     inkscape:current-layer="g4696" /><style
     type="text/css"
     id="style4678">
	.st0{fill:#3D3D3D;}
	.st1{fill:#24BCE3;}
	.st2{fill:#303030;}
	.st3{fill:none;stroke:#000000;stroke-width:5.000000e-03;stroke-miterlimit:10;}
</style><g
     id="g4699"><g
       id="g4696"><path
         class="st0"
         d="M273.6,69.3c0,6-4.9,12.1-10.9,13.3c-41.4,7.8-84,7.8-125.4,0c-6.1-1.2-10.9-7.3-10.9-13.3    c0-16.7,0-33.4,0-50.1c0-6,4.9-12.1,10.9-13.3c41.4-7.8,84-7.8,125.4,0c6.1,1.2,10.9,7.3,10.9,13.3    C273.6,35.9,273.6,52.6,273.6,69.3z"
         id="path4680"
         style="fill:#0f0f0f;fill-opacity:1" /><g
         id="g4690"><path
           class="st1"
           d="M46.1,142.2c0,4.6-3.7,8.3-8.3,8.3H8.4c-4.6,0-8.3-3.7-8.3-8.3V93c0-4.6,3.7-8.3,8.3-8.3h29.4     c4.6,0,8.3,3.7,8.3,8.3V142.2z"
           id="path4682" /><path
           class="st0"
           d="M70.9,150.3c0,6.1-4.9,11-11,11H20.9c-6.1,0-11-4.9-11-11V85c0-6.1,4.9-11,11-11h38.9c6.1,0,11,4.9,11,11     C70.9,85,70.9,150.3,70.9,150.3z"
           id="path4684"
           style="fill:#0f0f0f;fill-opacity:1" /><path
           class="st1"
           d="M353.9,142.2c0,4.6,3.7,8.3,8.3,8.3h29.4c4.6,0,8.3-3.7,8.3-8.3V93c0-4.6-3.7-8.3-8.3-8.3h-29.4     c-4.6,0-8.3,3.7-8.3,8.3C353.9,93,353.9,142.2,353.9,142.2z"
           id="path4686" /><path
           class="st0"
           d="M329.1,150.3c0,6.1,4.9,11,11,11h38.9c6.1,0,11-4.9,11-11V85c0-6.1-4.9-11-11-11h-38.9c-6.1,0-11,4.9-11,11     C329.1,85,329.1,150.3,329.1,150.3z"
           id="path4688"
           style="fill:#0f0f0f;fill-opacity:1" /></g><path
         class="st2"
         d="m 63.452674,41.050041 c -8.192333,1.037542 -18.890553,8.488978 -22.649388,16.600668 -17.252087,38.106077 -17.252087,76.306471 0,114.412551 3.758835,8.1117 14.457055,15.56313 22.649388,16.60066 24.095094,2.73534 48.093806,4.81042 72.188896,6.13094 8.19233,0.4716 18.11952,-4.90475 22.74577,-12.07322 3.85522,-6.0366 7.99958,-12.16753 12.43307,-18.29846 5.10816,-7.16847 17.15571,-13.01644 26.31184,-13.01644 1.92761,0 3.9516,0 5.87921,0 9.25251,0 21.20367,5.84797 26.31184,13.01644 4.4335,6.13093 8.57784,12.26186 12.43307,18.29846 4.52987,7.07415 14.45705,12.54482 22.74577,12.07322 24.09509,-1.32052 48.09381,-3.3956 72.18889,-6.13094 8.19233,-1.03753 18.89056,-8.48896 22.6494,-16.60066 17.25208,-38.10608 17.25208,-76.306474 0,-114.412551 -3.75884,-8.11169 -14.45707,-15.563126 -22.6494,-16.600668 -91.17582,-10.469739 -182.1589,-10.469739 -273.238356,0 z"
         id="path4692"
         style="fill:none;stroke:#0a0a0a;stroke-width:9.53456306;stroke-miterlimit:4;stroke-dasharray:none;stroke-opacity:1;fill-opacity:1"
         inkscape:connector-curvature="0" /><path
         inkscape:connector-curvature="0"
         class="st2"
         d="m 64.461972,42.971831 c -8.135604,1.019835 -18.759747,8.344098 -22.492559,16.31735 -17.132628,37.455719 -17.132628,75.004159 0,112.459879 3.732812,7.97325 14.356955,15.29753 22.492559,16.31736 23.928251,2.68863 47.760778,4.72831 71.689048,6.02627 8.1356,0.46358 17.99403,-4.82103 22.58827,-11.86716 3.8285,-5.93357 7.94418,-11.95988 12.34696,-17.98616 5.0728,-7.04611 17.03692,-12.79427 26.12965,-12.79427 1.91426,0 3.92424,0 5.83849,0 9.18846,0 21.05687,5.74816 26.12966,12.79427 4.4028,6.02628 8.51845,12.05259 12.34696,17.98616 4.49852,6.95343 14.35697,12.33074 22.58828,11.86716 23.92826,-1.29796 47.76079,-3.33764 71.68904,-6.02627 8.13561,-1.01983 18.75974,-8.34411 22.49256,-16.31736 17.13262,-37.45572 17.13262,-75.00416 0,-112.459879 -3.73282,-7.973252 -14.35695,-15.297515 -22.49256,-16.31735 -90.5445,-10.291053 -180.89759,-10.291053 -271.346358,0 z"
         id="path4692-0"
         style="fill:#13d0ab;fill-opacity:1;stroke:#0f0f0f;stroke-width:8;stroke-linecap:round;stroke-linejoin:round;stroke-miterlimit:4;stroke-dasharray:none;stroke-opacity:1" /></g></g></svg>