<?xml version="1.0" encoding="UTF-8" standalone="no"?>
<!-- Generator: Adobe Illustrator 21.0.0, SVG Export Plug-In . SVG Version: 6.00 Build 0)  -->

<svg
   xmlns:dc="http://purl.org/dc/elements/1.1/"
   xmlns:cc="http://creativecommons.org/ns#"
   xmlns:rdf="http://www.w3.org/1999/02/22-rdf-syntax-ns#"
   xmlns:svg="http://www.w3.org/2000/svg"
   xmlns="http://www.w3.org/2000/svg"
   xmlns:sodipodi="http://sodipodi.sourceforge.net/DTD/sodipodi-0.dtd"
   xmlns:inkscape="http://www.inkscape.org/namespaces/inkscape"
   version="1.1"
   id="Layer_1"
   x="0px"
   y="0px"
   viewBox="0 0 500 299.60852"
   xml:space="preserve"
   sodipodi:docname="goggle_trial2.svg"
   inkscape:version="0.92.1 r15371"
   width="500"
   height="299.60852"><metadata
     id="metadata4706"><rdf:RDF><cc:Work
         rdf:about=""><dc:format>image/svg+xml</dc:format><dc:type
           rdf:resource="http://purl.org/dc/dcmitype/StillImage" /><dc:title></dc:title></cc:Work></rdf:RDF></metadata><defs
     id="defs4704"><clipPath
       clipPathUnits="userSpaceOnUse"
       id="clipPath106"><path
         d="m 247.13,334.772 h 272.789 v -132.754 h -272.789 z"
         id="path104"
         inkscape:connector-curvature="0" /></clipPath></defs><sodipodi:namedview
     pagecolor="#ffffff"
     bordercolor="#666666"
     borderopacity="1"
     objecttolerance="10"
     gridtolerance="10"
     guidetolerance="10"
     inkscape:pageopacity="0"
     inkscape:pageshadow="2"
     inkscape:window-width="1366"
     inkscape:window-height="705"
     id="namedview4702"
     showgrid="false"
     inkscape:zoom="1.85"
     inkscape:cx="254.51833"
     inkscape:cy="143.82792"
     inkscape:window-x="-8"
     inkscape:window-y="-8"
     inkscape:window-maximized="1"
     inkscape:current-layer="g5493"
     fit-margin-top="0"
     fit-margin-left="0"
     fit-margin-right="0"
     fit-margin-bottom="0" /><style
     type="text/css"
     id="style4678">
	.st0{fill:#3D3D3D;}
	.st1{fill:#24BCE3;}
	.st2{fill:#303030;}
	.st3{fill:none;stroke:#000000;stroke-width:5.000000e-03;stroke-miterlimit:10;}
</style><g
     id="g4699"
     transform="translate(-1.6910903,99.476072)"><g
       id="g7308"
       transform="matrix(0.9986628,0,0,0.99777559,1.3351656,0.44517658)"><g
         transform="matrix(0.63154403,0,0,0.65349308,-2.7128018,83.30364)"
         id="g4696"><g
           transform="matrix(0.63634926,0,0,-0.62246485,259.51452,318.15348)"
           id="g5493"><g
             style="fill:#b77651;fill-opacity:1"
             id="g32"
             transform="matrix(1.9023506,0,0,1.4901501,25.764608,696.63602)"><path
               d="m 0,0 c -20.951,31.625 -36.712,106.936 30.317,145.2 69.039,39.411 201.311,31.114 201.311,31.114 0,0 -19.08,-42.197 -13.137,-67.069 17.864,-74.765 -15.471,-113.394 -15.471,-113.394 0,0 -11.085,86.502 -50.016,102.332 -57.818,23.508 -102.294,9.145 -129.628,-16.414 -29.698,-27.768 -23.376,-81.769 -23.376,-81.769"
               style="fill:#b77651;fill-opacity:1;fill-rule:nonzero;stroke:none"
               id="path34"
               inkscape:connector-curvature="0" /></g><g
             style="fill:#cea18a;fill-opacity:1;stroke:#cea18a;stroke-width:3.02566504;stroke-miterlimit:4;stroke-dasharray:none;stroke-opacity:1"
             id="g40"
             transform="matrix(1.4645888,0,0,1.1991893,218.94047,291.36166)"><path
               sodipodi:nodetypes="cccscccsccc"
               d="m 0,0 c 42.647,0 81.036,17.361 107.834,45.067 -7.872,3.094 -14.736,5.61 -19.721,7.105 -23.188,6.956 -29.815542,9.321733 -28.984,17.391 l 2.767342,26.854219 c -21.542898,-12.180907 -40.928082,-16.349133 -60.6376161,-19.765223 -19.0133069,4.180634 -38.1477359,6.861821 -58.9944069,20.72276 l -1.392319,-27.811756 c -0.405745,-8.104807 -5.797,-10.435 -28.985,-17.391 -4.985,-1.495 -11.849,-4.011 -19.721,-7.105 26.799,-27.706 65.187,-45.067 107.834,-45.067"
               style="fill:#cea18a;fill-opacity:1;fill-rule:nonzero;stroke:#cea18a;stroke-width:3.02566504;stroke-miterlimit:4;stroke-dasharray:none;stroke-opacity:1"
               id="path42"
               inkscape:connector-curvature="0" /></g><g
             style="fill:#e2bea7;fill-opacity:1;stroke:#e2beb0;stroke-width:3.02566504;stroke-miterlimit:4;stroke-dasharray:none;stroke-opacity:1"
             id="g44"
             transform="matrix(1.8719099,0,0,1.5212772,225.63604,862.69404)"><path
               d="m 0,0 v 0 0 h -0.001 c -69.273,0 -105.812,-39.585 -105.812,-118.755 0,-79.169 11.418,-128.65 25.609,-147.681 14.191,-19.031 48.231,-47.197 80.203,-47.198 h 0.001 v 0 c 31.972,0.001 66.012,28.167 80.203,47.198 14.191,19.031 25.609,68.512 25.609,147.681 0,79.17 -36.539,118.755 -105.812,118.755"
               style="fill:#e2bea7;fill-opacity:1;fill-rule:nonzero;stroke:#e2beb0;stroke-width:3.02566504;stroke-miterlimit:4;stroke-dasharray:none;stroke-opacity:1"
               id="path46"
               inkscape:connector-curvature="0" /></g><g
             id="g52"
             transform="matrix(1.7034129,0,0,1.6641026,51.777447,755.86391)"><path
               d="m 0,0 c 4.773,-0.734 8.466,2.216 8.466,2.216 -0.862,0.983 -2.108,1.73 -3.876,2.007 -3.138,0.49 -8.052,2.236 -12.541,3.841 h -0.001 c -0.31,-4.943 3.179,-7.33 7.952,-8.064"
               style="fill:none;fill-opacity:1;fill-rule:nonzero;stroke:none"
               id="path54"
               inkscape:connector-curvature="0" /></g><g
             id="g88"
             transform="matrix(1.7034129,0,0,1.6641026,345.13206,770.36324)"><path
               d="m 0,0 0.005,-0.004 c 0.575,-2.1 -0.71,-4.635 -0.71,-4.635 0,0 -5.507,-1.504 -8.445,-1.871 -2.937,-0.367 -4.579,1.77 -4.579,1.77 1.775,2.347 5.718,2.35 13.729,4.74"
               style="fill:none;fill-opacity:1;fill-rule:nonzero;stroke:none"
               id="path90"
               inkscape:connector-curvature="0" /></g><g
             style="fill:#d18b69;fill-opacity:1"
             id="g124"
             transform="matrix(1.6982017,0,0,1.6641026,28.089621,793.31953)"><path
               d="m 0,0 c 38.808,-44.514 198.504,-27.405 224.781,13.393 26.278,40.797 33.323,86.391 33.323,86.391 0,0 -4.75,-8.513 -107.001,-15.166 -102.252,-6.653 -123.541,-32.663 -133.874,-47.872 -10.333,-15.21 -17.229,-36.746 -17.229,-36.746"
               style="fill:#d18b69;fill-opacity:1;fill-rule:nonzero;stroke:none;stroke-opacity:1"
               id="path126"
               inkscape:connector-curvature="0" /></g><g
             style="fill:#cea18a;fill-opacity:1;stroke:#cea18a;stroke-width:3.02566504;stroke-miterlimit:4;stroke-dasharray:none;stroke-opacity:1"
             id="g72"
             transform="matrix(1.6738167,0.01099029,-0.01189083,1.6059946,542.26653,368.37836)"><path
               d="m 0,0 c -15.789,25.335 -34.882,66.826 -40.022,77.475 -5.141,10.648 -11.567,22.765 -23.683,21.296 -12.117,-1.469 -22.031,-7.895 -34.882,-3.121 -12.851,4.773 -23.867,9.363 -35.433,10.097 -11.566,0.735 -20.378,8.812 -26.804,9.547 -6.425,0.734 -14.503,2.57 -14.32,7.894 0.184,5.324 6.242,9.73 22.582,9.73 16.339,0 26.253,-1.101 35.8,-3.121 9.546,-2.019 10.831,-2.753 18.175,-0.183 7.343,2.57 18.909,6.976 24.05,14.32 5.14,7.343 4.773,26.804 2.754,35.249 -2.02,8.445 -4.223,36.35 -4.223,42.042 0,5.691 1.836,14.687 1.836,15.421 0,0.734 -4.59,3.121 -10.465,5.691 -5.874,2.57 -9.362,6.793 -9.73,7.527 -0.367,0.735 -6.976,-0.918 -15.605,0 -8.628,0.918 -17.441,4.407 -18.359,7.344 -0.917,2.937 -0.734,8.996 5.141,9.914 5.875,0.918 17.992,6.242 21.847,6.793 3.855,0.55 8.445,-1.285 15.789,-3.489 7.343,-2.203 19.093,-7.894 23.866,-10.097 4.774,-2.203 8.629,-3.855 9.547,-11.015 0.918,-7.16 6.425,-23.867 9.546,-28.457 3.121,-4.589 5.875,-8.445 6.977,-21.112 1.101,-12.668 5.14,-37.452 12.851,-50.12 7.711,-12.668 16.523,-23.499 22.765,-30.659 6.242,-7.16 103.177,-118.966 103.177,-118.966 z"
               style="fill:#cea18a;fill-opacity:1;fill-rule:nonzero;stroke:#cea18a;stroke-width:3.02566504;stroke-miterlimit:4;stroke-dasharray:none;stroke-opacity:1"
               id="path74"
               inkscape:connector-curvature="0" /></g><g
             style="fill:#cea18a;fill-opacity:1;stroke:#cea18a;stroke-width:3.02566504;stroke-miterlimit:4;stroke-dasharray:none;stroke-opacity:1"
             id="g48"
             transform="matrix(1.7250865,-0.04311552,0.04219541,1.5952959,-110.6113,376.18413)"><path
               d="m 0,0 c 15.789,25.335 34.882,66.826 40.022,77.475 5.141,10.648 11.566,22.765 23.683,21.296 12.117,-1.469 22.031,-7.895 34.882,-3.121 12.851,4.773 23.867,9.363 35.433,10.097 11.566,0.735 20.378,8.812 26.804,9.547 6.425,0.734 14.503,2.57 14.32,7.894 -0.184,5.324 -6.242,9.73 -22.582,9.73 -16.339,0 -26.253,-1.101 -35.8,-3.121 -9.546,-2.019 -10.831,-2.753 -18.175,-0.183 -7.343,2.57 -18.91,6.976 -24.05,14.32 -5.14,7.343 -4.773,26.804 -2.754,35.249 2.02,8.445 4.223,36.35 4.223,42.042 0,5.691 -1.836,14.687 -1.836,15.421 0,0.734 4.59,3.121 10.464,5.691 5.875,2.57 9.363,6.793 9.731,7.527 0.367,0.735 6.976,-0.918 15.605,0 8.628,0.918 17.441,4.407 18.359,7.344 0.917,2.937 0.734,8.996 -5.141,9.914 -5.875,0.918 -17.992,6.242 -21.847,6.793 -3.855,0.55 -8.445,-1.285 -15.789,-3.489 -7.343,-2.203 -19.093,-7.894 -23.866,-10.097 -4.774,-2.203 -8.629,-3.855 -9.547,-11.015 -0.918,-7.16 -6.425,-23.867 -9.546,-28.457 -3.121,-4.589 -5.875,-8.445 -6.977,-21.112 -1.101,-12.668 -5.14,-37.452 -12.851,-50.12 -7.711,-12.668 -16.523,-23.499 -22.765,-30.659 -6.242,-7.16 -103.177,-146.364 -103.177,-146.364 z"
               style="fill:#cea18a;fill-opacity:1;fill-rule:nonzero;stroke:#cea18a;stroke-width:3.02566504;stroke-miterlimit:4;stroke-dasharray:none;stroke-opacity:1"
               id="path50"
               inkscape:connector-curvature="0" /></g><g
             id="g76"
             transform="matrix(1.3459017,0,0,1.6641026,310.56146,782.68717)"><path
               d="m 13.109308,2.0951571 c -4.7730003,-0.734 -8.4660003,2.216 -8.4660003,2.216 0.862,0.983 2.108,1.73 3.876,2.007 3.1380003,0.49 8.0520003,2.236 12.5410003,3.8409999 h 0.001 c 0.31,-4.9429999 -3.179,-7.3299999 -7.952,-8.0639999"
               style="fill:#e1e1e1;fill-opacity:1;fill-rule:nonzero;stroke:none"
               id="path78"
               inkscape:connector-curvature="0" /></g><g
             style="fill:#e1e1e1;fill-opacity:1;stroke:none;stroke-width:3.02566504;stroke-miterlimit:4;stroke-dasharray:none;stroke-opacity:1"
             id="g64"
             transform="matrix(1.783081,-0.17885809,0.15810541,1.968768,104.01531,802.29495)"><path
               d="m 0,0 -0.005,-0.004 c -0.575,-2.1 0.71,-4.635 0.71,-4.635 0,0 5.507,-1.504 8.445,-1.871 2.937,-0.367 4.579,1.77 4.579,1.77 -1.775,2.347 -5.718,2.35 -13.729,4.74"
               style="fill:#e1e1e1;fill-opacity:1;fill-rule:nonzero;stroke:none;stroke-width:3.02566504;stroke-miterlimit:4;stroke-dasharray:none;stroke-opacity:1"
               id="path66"
               inkscape:connector-curvature="0" /></g><g
             style="fill:#141414;fill-opacity:1;stroke:none;stroke-opacity:1"
             id="g36"
             transform="matrix(1.7034129,0,0,1.6870405,617.96489,308.83179)"><path
               d="m 0,0 c -13.652,5.461 -100.85,24.495 -129.595,35.792 -26.798,-27.706 -65.187,-45.067 -107.834,-45.067 -42.646,0 -81.035,17.361 -107.834,45.067 -28.744,-11.297 -102.687,-30.331 -116.339,-35.792 -17.391,-6.956 -35.361,-50.306 -35.361,-50.306 h 259.534 272.79 c 0,0 -17.97,43.35 -35.361,50.306"
               style="fill:#141414;fill-opacity:1;fill-rule:nonzero;stroke:none;stroke-opacity:1"
               id="path38"
               inkscape:connector-curvature="0" /></g><g
             style="fill:#141414;fill-opacity:1;stroke:none;stroke-width:3.02566504;stroke-miterlimit:4;stroke-dasharray:none;stroke-opacity:1"
             id="g92"
             transform="matrix(1.858493,0,0,1.6741269,568.28127,551.56413)"><path
               d="m 0,0 c -11.383,-26.986 -58.748,-46.446 -58.748,-46.446 l 59.296,-149.269 h 149.24 z"
               style="fill:#141414;fill-opacity:1;fill-rule:nonzero;stroke:none;stroke-width:3.02566504;stroke-miterlimit:4;stroke-dasharray:none;stroke-opacity:1"
               id="path94"
               inkscape:connector-curvature="0" /></g><g
             style="fill:#141414;fill-opacity:1;stroke:none;stroke-width:3.02566504;stroke-miterlimit:4;stroke-dasharray:none;stroke-opacity:1"
             id="g68"
             transform="matrix(1.925006,0,0,1.6741306,-140.72752,551.58013)"><path
               d="m 0,0 c 11.382,-26.986 58.748,-46.446 58.748,-46.446 l -60.884,-149.269 h -132.645 z"
               style="fill:#141414;fill-opacity:1;fill-rule:nonzero;stroke:none;stroke-width:3.02566504;stroke-miterlimit:4;stroke-dasharray:none;stroke-opacity:1"
               id="path70"
               inkscape:connector-curvature="0" /></g></g></g><g
         transform="matrix(0.50516547,0,0,0.50365358,-153.67275,92.402734)"
         id="g5716"><path
           class="st0"
           d="m 873.60001,-193.38657 c 0,6 -4.9,12.1 -10.9,13.3 -41.4,7.8 -84,7.8 -125.4,0 -6.1,-1.2 -10.9,-7.3 -10.9,-13.3 0,-16.7 0,-33.39999 0,-50.09999 0,-6 4.9,-12.1 10.9,-13.3 41.4,-7.8 84,-7.8 125.4,0 6.1,1.2 10.9,7.3 10.9,13.3 0,16.7 0,33.39999 0,50.09999 z"
           id="path4680"
           style="fill:#0f0f0f;fill-opacity:1"
           inkscape:connector-curvature="0" /><g
           id="g4690"
           transform="translate(600.00001,-262.68656)"><path
             class="st1"
             d="m 46.1,142.2 c 0,4.6 -3.7,8.3 -8.3,8.3 h -29.4 c -4.6,0 -8.3,-3.7 -8.3,-8.3 v -49.2 c 0,-4.6 3.7,-8.3 8.3,-8.3 h 29.4 c 4.6,0 8.3,3.7 8.3,8.3 z"
             id="path4682"
             inkscape:connector-curvature="0"
             style="fill:#24bce3" /><path
             class="st0"
             d="m 70.9,150.3 c 0,6.1 -4.9,11 -11,11 h -39 c -6.1,0 -11,-4.9 -11,-11 v -65.3 c 0,-6.1 4.9,-11 11,-11 h 38.9 c 6.1,0 11,4.9 11,11 0.1,0 0.1,65.3 0.1,65.3 z"
             id="path4684"
             style="fill:#0f0f0f;fill-opacity:1"
             inkscape:connector-curvature="0" /><path
             class="st1"
             d="m 353.9,142.2 c 0,4.6 3.7,8.3 8.3,8.3 h 29.4 c 4.6,0 8.3,-3.7 8.3,-8.3 v -49.2 c 0,-4.6 -3.7,-8.3 -8.3,-8.3 h -29.4 c -4.6,0 -8.3,3.7 -8.3,8.3 0,0 0,49.2 0,49.2 z"
             id="path4686"
             inkscape:connector-curvature="0"
             style="fill:#24bce3" /><path
             class="st0"
             d="m 329.1,150.3 c 0,6.1 4.9,11 11,11 h 38.9 c 6.1,0 11,-4.9 11,-11 v -65.3 c 0,-6.1 -4.9,-11 -11,-11 h -38.9 c -6.1,0 -11,4.9 -11,11 0,0 0,65.3 0,65.3 z"
             id="path4688"
             style="fill:#0f0f0f;fill-opacity:1"
             inkscape:connector-curvature="0" /></g><path
           class="st2"
           d="m 663.45268,-221.63652 c -8.19233,1.03754 -18.89055,8.48897 -22.64938,16.60066 -17.25209,38.10608 -17.25209,76.30647 0,114.412546 3.75883,8.1117 14.45705,15.56313 22.64938,16.60066 24.0951,2.73534 48.09381,4.81042 72.1889,6.13094 8.19233,0.4716 18.11952,-4.90475 22.74577,-12.07322 3.85522,-6.0366 7.99958,-12.16753 12.43307,-18.29846 5.10816,-7.168466 17.15571,-13.016436 26.31184,-13.016436 1.92761,0 3.9516,0 5.87921,0 9.25251,0 21.20367,5.84797 26.31184,13.016436 4.4335,6.13093 8.57784,12.26186 12.43307,18.29846 4.52987,7.07415 14.45705,12.54482 22.74577,12.07322 24.09509,-1.32052 48.09378,-3.3956 72.18888,-6.13094 8.1923,-1.03753 18.8906,-8.48896 22.6494,-16.60066 17.2521,-38.106076 17.2521,-76.306466 0,-114.412546 -3.7588,-8.11169 -14.4571,-15.56312 -22.6494,-16.60066 -91.17581,-10.46974 -182.15889,-10.46974 -273.23835,0 z"
           id="path4692"
           style="fill:none;fill-opacity:1;stroke:#0a0a0a;stroke-width:9.53456306;stroke-miterlimit:4;stroke-dasharray:none;stroke-opacity:1"
           inkscape:connector-curvature="0" /><path
           inkscape:connector-curvature="0"
           class="st2"
           d="m 664.46198,-219.71473 c -8.1356,1.01983 -18.75975,8.34409 -22.49256,16.31735 -17.13263,37.45571 -17.13263,75.00415 0,112.459866 3.73281,7.97325 14.35696,15.29753 22.49256,16.31736 23.92825,2.68863 47.76078,4.72831 71.68905,6.02627 8.1356,0.46358 17.99403,-4.82103 22.58827,-11.86716 3.8285,-5.93357 7.94418,-11.95988 12.34696,-17.98616 5.0728,-7.046106 17.03692,-12.794266 26.12965,-12.794266 1.91426,0 3.92424,0 5.83849,0 9.18846,0 21.05687,5.74816 26.12966,12.794266 4.4028,6.02628 8.51845,12.05259 12.34696,17.98616 4.49852,6.95343 14.35697,12.33074 22.58828,11.86716 23.92826,-1.29796 47.76083,-3.33764 71.68903,-6.02627 8.1356,-1.01983 18.7597,-8.34411 22.4926,-16.31736 17.1326,-37.455716 17.1326,-75.004156 0,-112.459866 -3.7329,-7.97326 -14.357,-15.29752 -22.4926,-16.31735 -90.54449,-10.29105 -180.89758,-10.29105 -271.34635,0 z"
           id="path4692-0"
           style="fill:#13d0ab;fill-opacity:1;stroke:#0f0f0f;stroke-width:8;stroke-linecap:round;stroke-linejoin:round;stroke-miterlimit:4;stroke-dasharray:none;stroke-opacity:1" /></g></g></g></svg>